<svg width="1260" height="1553.0000000000002" xmlns="http://www.w3.org/2000/svg" fill="none">


    <g>

        <path id="svg_2" stroke-width="18" stroke="white"
            d="m149.37,32.8966l-0.007,-0.0122c-4.576,-8.0506 -9.392,-15.923 -14.353,-23.8844l-0.025,0l-0.279,0l-0.278,0l-0.278,0l-0.278,0l-0.278,0l-0.279,0l-0.278,0l-0.278,0l-0.278,0l-0.278,0l-0.278,0l-0.278,0l-0.278,0l-0.278,0l-0.278,0l-0.278,0l-0.278,0l-0.277,0l-0.278,0l-0.278,0l-0.278,0l-0.277,0l-0.278,0l-0.278,0l-0.277,0l-0.278,0l-0.277,0l-0.278,0l-0.277,0l-0.278,0l-0.277,0l-0.278,0l-0.277,0l-0.277,0l-0.278,0l-0.277,0l-0.277,0l-0.277,0l-0.278,0l-0.277,0l-0.277,0l-0.277,0l-0.277,0l-0.277,0l-0.277,0l-0.277,0l-0.277,0l-0.277,0l-0.277,0l-0.277,0l-0.277,0l-0.277,0l-0.276,0l-0.277,0l-0.277,0l-0.277,0l-0.276,0l-0.277,0l-0.277,0l-0.276,0l-0.277,0l-0.276,0l-0.277,0l-0.276,0l-0.277,0l-0.276,0l-0.277,0l-0.276,0l-0.276,0l-0.277,0l-0.276,0l-0.276,0l-0.277,0l-0.276,0l-0.276,0l-0.276,0l-0.276,0l-0.277,0l-0.276,0l-0.276,0l-0.276,0l-0.276,0l-0.276,0l-0.276,0l-0.276,0l-0.276,0l-0.276,0l-0.275,0l-0.276,0l-0.276,0l-0.276,0l-0.276,0l-0.275,0l-0.276,0l-0.276,0l-0.276,0l-0.275,0l-0.276,0l-0.275,0l-0.276,0l-0.276,0l-0.275,0l-0.276,0l-0.275,0l-0.275,0l-0.276,0l-0.275,0l-0.276,0l-0.275,0l-0.275,0l-0.276,0l-0.275,0l-0.275,0l-0.275,0l-0.276,0l-0.275,0l-0.275,0l-0.275,0l-0.275,0l-0.275,0l-0.275,0l-0.275,0l-0.275,0l-0.275,0l-0.275,0l-0.275,0l-0.2753,0l-0.275,0l-0.2748,0l-0.2749,0l-0.2748,0l-0.2749,0l-0.2747,0l-0.2748,0l-0.2748,0l-0.2747,0l-0.2747,0l-0.2747,0l-0.2746,0l-0.2747,0l-0.2746,0l-0.2746,0l-0.2745,0l-0.2746,0l-0.2745,0l-0.2745,0l-0.2745,0l-0.2745,0l-0.2744,0l-0.2744,0l-0.2744,0l-0.2744,0l-0.2743,0l-0.2744,0l-0.2743,0l-0.2743,0l-0.2742,0l-0.2743,0l-0.2742,0l-0.2742,0l-0.2742,0l-0.2742,0l-0.2741,0l-0.2741,0l-0.2741,0l-0.2741,0l-0.2741,0l-0.274,0l-0.274,0l-0.274,0l-0.274,0l-0.2739,0l-0.274,0l-0.2739,0l-0.2739,0l-0.2739,0l-0.2738,0l-0.2739,0l-0.2738,0l-0.2738,0l-0.2738,0l-0.2737,0l-0.2738,0l-0.2737,0l-0.2737,0l-0.2737,0l-0.2736,0l-0.2737,0l-0.2736,0l-0.2736,0l-0.2736,0l-0.2736,0l-0.2735,0l-0.2735,0l-0.2735,0l-0.2735,0l-0.2735,0l-0.2735,0l-0.2734,0l-0.2734,0l-0.2734,0l-0.2734,0l-0.2734,0l-0.2733,0l-0.2733,0l-0.2733,0l-0.2733,0l-0.2733,0l-0.2732,0l-0.2733,0l-0.2732,0l-0.2732,0l-0.2732,0l-0.2731,0l-0.2732,0l-0.2731,0l-0.2731,0l-0.2731,0l-0.2731,0l-0.2731,0l-0.273,0l-0.273,0l-0.2731,0l-0.2729,0l-0.273,0l-0.273,0l-0.2729,0l-0.2729,0l-0.273,0l-0.2729,0l-0.2728,0l-0.2729,0l-0.2728,0l-0.2729,0l-0.2728,0l-0.2728,0l-0.2727,0l-0.2728,0l-0.2727,0l-0.2728,0l-0.2727,0l-0.2727,0l-0.2727,0l-0.2726,0l-0.2727,0l-0.2726,0l-0.2726,0l-0.2726,0l-0.2726,0l-0.2726,0l-0.2726,0l-0.2725,0l-0.2725,0l-0.2726,0l-0.2725,0l-0.2724,0l-0.2725,0l-0.2725,0l-0.2724,0l-0.2724,0l-0.2724,0l-0.2724,0l-0.2724,0l-0.2724,0l-0.2723,0l-0.2724,0l-0.2723,0l-0.2723,0l-0.2723,0l-0.2723,0l-0.2722,0l-0.2723,0l-0.2722,0l-0.2722,0l-0.2723,0l-0.2722,0l-0.2721,0l-0.2722,0l-0.2722,0l-0.2721,0l-0.2721,0l-0.2722,0l-0.2721,0l-0.272,0l-0.2721,0l-0.2721,0l-0.272,0l-0.2721,0l-0.272,0l-0.272,0l-0.272,0l-0.272,0l-0.272,0l-0.2719,0l-0.272,0l-0.2719,0l-0.2719,0l-0.2719,0l-0.2719,0l-0.2719,0l-0.2719,0l-0.2719,0l-0.2718,0l-0.2719,0l-0.2718,0l-0.2718,0l-0.2718,0l-0.2718,0l-0.2718,0l-0.2717,0l-0.2718,0l-0.2717,0l-0.2718,0l-0.2717,0l-0.2717,0l-0.2717,0l-0.2717,0l-0.2717,0l-0.2716,0l-0.2717,0l-0.2716,0l-0.2717,0l-0.2716,0l-0.2716,0l-0.2716,0l-0.2716,0l-0.2716,0l-0.2716,0l-0.2715,0l-0.2716,0l-0.2715,0l-0.2715,0l-0.2716,0l-0.2715,0l-0.2715,0l-0.2715,0l-0.2714,0l-0.2715,0l-0.2715,0l-0.2714,0l-0.2715,0l-0.2714,0l-0.2714,0l-0.2714,0l-0.2714,0l-0.2714,0l-0.2714,0l-0.2714,0l-0.2713,0l-0.2714,0l-0.2713,0l-0.2714,0l-0.2713,0l-0.2713,0l-0.2714,0l-0.2713,0l-0.2712,0l-0.2713,0l-0.2713,0l-0.2713,0l-0.2712,0l-0.2713,0l-0.2712,0l-0.2713,0l-0.2712,0l-0.2712,0l-0.2712,0l-0.2712,0l-0.2712,0l-0.2712,0l-0.2712,0l-0.2712,0l-0.2711,0l-0.2712,0l-0.2711,0l-0.2712,0l-0.2711,0l-0.2712,0l-0.2711,0l-0.2711,0l-0.2711,0l-0.2711,0l-0.2711,0l-0.2711,0l-0.2711,0l-0.271,0l-0.2711,0l-0.271,0l-0.2711,0l-0.271,0l-0.2711,0l-0.271,0l-0.271,0l-0.2711,0l-0.271,0l-0.271,0l-0.271,0l-0.271,0l-0.271,0l-0.2709,0l-0.271,0l-0.271,0l-0.271,0l-0.2709,0l-0.271,0l-0.2709,0l-0.271,0l-0.2709,0l-0.2709,0l-0.271,0l-0.2709,0l-0.2709,0l-0.2709,0l-0.2709,0l-0.2709,0l-0.2709,0l-0.2709,0l-0.2709,0l-0.2709,0l-0.2708,0l-0.2709,0l-0.2709,0l-0.2708,0l-0.2709,0l-0.2709,0l-0.2708,0l-0.2709,0l-0.2708,0l-0.2708,0l-0.2709,0l-0.2708,0l-0.2708,0l-0.2708,0l-0.2709,0l-0.2708,0l-0.2708,0l-0.2708,0l-0.2708,0l-0.2708,0l-0.2708,0l-0.2708,0l-0.2708,0l-0.2708,0l-0.2707,0l-0.2708,0l-0.2708,0l-0.2708,0l-0.2707,0l-0.2708,0l-0.2708,0l-0.2707,0l-0.2708,0l-0.2708,0l-0.2707,0l-0.2708,0l-0.2707,0l-0.2708,0l-0.2707,0l-0.27074,0l-0.27074,0l-0.20432,0l0,0.28001l0,3.09259l0,3.0923l0,3.0919l0,3.0916l0,3.0912l0,3.0909l0,3.0905l0,3.0902l0,3.0898l0,3.0895l0,3.0891l0,3.0888l0,3.0885l0,3.088l0,3.0878l0,3.0874l0,3.0871l0,3.0867l0,3.0864l0,3.086l0,3.0857l0,3.0854l0,3.085l0,3.0847l0,3.0844l0,3.084l0,3.0837l0,3.0833l0,3.0831l0,3.0824l0,3.083l0,3.082l0,3.081l0,3.082l0,3.081l0,3.08l0,3.081l0,3.08l0,3.079l0,3.08l0,3.079l0,3.079l0,3.078l0,3.078l0,3.078l0,3.077l0,3.078l0,3.076l0,3.077l0,3.076l0,3.076l0,3.075l0,3.076l0,3.074l0,3.075l0,3.074l0,3.074l0,3.074l0,3.073l0,3.073l0,3.073l0,3.072l0,3.072l0,3.072l0,3.072l0,3.071l0,3.071l0,3.07l0,3.07l0,3.07l0,3.07l0,3.069l0,3.069l0,3.069l0,3.068l0,3.068l0,3.068l0,3.068l0,3.067l0,3.067l0,3.066l0,3.067l0,3.066l0,3.065l0,3.066l0,3.065l0,3.065l0,3.064l0,3.065l0,3.064l0,3.063l0,3.064l0,3.063l0,3.062l0,3.063l0,3.062l0,3.062l0,3.062l0,3.061l0,3.061l0,3.061l0,3.061l0,3.06l0,3.06l0,3.059l0,3.06l0,3.059l0,3.059l0,3.058l0,3.059l0,3.058l0,3.057l0,3.058l0,3.057l0,3.057l0,3.056l0,3.057l0,3.056l0,3.056l0,3.055l0,3.055l0,3.055l0,3.055l0,3.055l0,3.054l0,3.054l0,3.053l0,3.054l0,3.053l0,3.053l0,3.052l0,3.053l0,3.052l0,3.052l0,3.051l0,3.051l0,3.051l0,3.051l0,3.051l0,3.05l0,3.05l0,3.05l0,3.049l0,3.05l0,3.049l0,3.048l0,3.049l0,3.048l0,3.048l0,3.048l0,3.047l0,3.047l0,3.047l0,3.047l0,3.047l0,3.046l0,3.046l0,3.046l0,3.045l0,3.045l0,3.045l0,3.045l0,3.045l0,3.044l0,3.044l0,3.044l0,3.044l0,3.043l0,3.043l0,3.043l0,3.043l0,3.042l0,3.042l0,3.042l0,3.042l0,3.041l0,3.042l0,3.041l0,3.04l0,3.041l0,3.04l0,3.04l0,3.04l0,3.04l0,3.039l0,3.04l0,3.038l0,3.039l0,3.039l0,3.038l0,3.038l0,3.038l0,3.038l0,3.037l0,3.037l0,3.037l0,3.037l0,3.037l0,3.036l0,3.036l0,3.036l0,3.036l0,3.035l0,3.035l0,3.035l0,3.035l0,3.035l0,3.034l0,3.035l0,3.034l0,3.033l0,3.034l0,3.033l0,3.034l0,3.033l0,3.032l0,3.033l0,3.032l0,3.032l0,3.032l0,3.032l0,3.032l0,3.031l0,3.031l0,3.031l0,3.031l0,3.031l0,3.03l0,3.03l0,3.03l0,3.03l0,3.029l0,3.03l0,3.029l0,3.029l0,3.029l0,3.029l0,3.028l0,3.028l0,3.028l0,3.028l0,3.028l0,3.028l0,3.027l0,3.027l0,3.027l0,3.027l0,3.026l0,3.027l0,3.026l0,3.026l0,3.026l0,3.026l0,3.025l0,3.026l0,3.025l0,3.025l0,3.025l0,3.024l0,3.025l0,3.024l0,3.024l0,3.024l0,3.024l0,3.024l0,3.023l0,3.023l0,3.023l0,3.023l0,3.023l0,3.023l0,3.022l0,3.023l0,3.022l0,3.022l0,3.021l0,3.022l0,3.022l0,3.021l0,3.021l0,3.021l0,3.021l0,3.021l0,3.02l0,3.02l0,3.021l0,3.02l0,3.02l0,3.019l0,3.02l0,3.019l0,3.02l0,3.019l0,3.019l0,3.019l0,3.018l0,3.019l0,3.018l0,3.019l0,3.018l0,3.018l0,3.017l0,3.018l0,3.018l0,3.017l0,3.017l0,3.017l0,3.017l0,3.017l0,3.017l0,3.016l0,3.017l0,3.016l0,3.016l0,3.016l0,3.016l0,3.016l0,3.015l0,3.016l0,3.015l0,3.015l0,3.015l0,3.015l0,3.015l0,3.015l0,3.019l0,3.01l0,3.01l0,3.02l0,3.01l0,3.02l0,3.01l0,3.01l0,3.02l0,3.01l0,3.01l0,3.02l0,3.01l0,3.01l0,3.02l0,3.01l0,3.01l0,3.01l0,3.02l0,3.01l0,3.01l0,3.01l0,3.01l0,3.02l0,3.01l0,3.01l0,3.01l0,3.01l0,3.01l0,3.02l0,3.01l0,3.01l0,3.01l0,3.01l0,3.01l0,3.01l0,3.01l0,3.01l0,3.01l0,3.01l0,3.01l0,3.01l0,3.01l0,3.01l0,3.01l0,3.01l0,3.01l0,3.01l0,3.01l0,3.01l0,3.01l0,3l0,3.01l0,3.01l0,3.01l0,3.01l0,3.01l0,3.01l0,3.01l0,3l0,3.01l0,3.01l0,3.01l0,3.01l0,3l0,3.01l0,3.01l0,3.01l0,3l0,3.01l0,3.01l0,3.01l0,3l0,3.01l0,3.01l0,3l0,3.01l0,3.01l0,3l0,3.01l0,3.01l0,3l0,3.01l0,3.01l0,3l0,3.01l0,3.01l0,3l0,3.01l0,3l0,3.01l0,3.01l0,3l0,3.01l0,3l0,3.01l0,3l0,3.01l0,3l0,3.01l0,3.01l0,3l0,3.01l0,3l0,3.01l0,3l0,3.01l0,3l0,3.01l0,3l0,3.01l0,3l0,3l0,3.01l0,3l0,3.01l0,3l0,3.01l0,3l0,3.01l0,3l0,3l0,3.01l0,3l0,3.01l0,3l0,3l0,3.01l0,3l0,3.01l0,3l0,3l0,3.01l0,3l0,3.01l0,3l0,3l0,3.01l0,3l0,3l0,3.01l0,3l0,3l0,3.01l0,3l0,3l0,3.01l0,3l0,3l0,3.01l0,3l0,3l0,3.01l0,3l0,3l0,3.01l0,3l0,3l0,3.01l0,3l0,3l0,3.01l0,3l0,3l0,3l0,3.01l0,3l0,3l0,3.01l0,3l0,3l0,3.01l0,3l0,3l0,3l0,3.01l0,3l0,3l0,3.01l0,3l0,3l0,0.01l0.18683,0l0.27787,0l0.27784,0l0.27776,0l0.2778,0l0.2778,0l0.2777,0l0.2777,0l0.2776,0l0.2777,0l0.2776,0l0.2775,0l0.2776,0l0.2775,0l0.2775,0l0.2774,0l0.2775,0l0.2774,0l0.2773,0l0.2774,0l0.2773,0l0.2773,0l0.2772,0l0.2772,0l0.2772,0l0.2772,0l0.2771,0l0.2771,0l0.2771,0l0.2771,0l0.277,0l0.277,0l0.277,0l0.2769,0l0.2769,0l0.2769,0l0.2769,0l0.2768,0l0.2768,0l0.2768,0l0.2767,0l0.2768,0l0.2766,0l0.2767,0l0.2766,0l0.2767,0l0.2765,0l0.2766,0l0.2765,0l0.2765,0l0.2765,0l0.2765,0l0.2764,0l0.2764,0l0.2763,0l0.2764,0l0.2763,0l0.2763,0l0.2763,0l0.2762,0l0.2762,0l0.2762,0l0.2761,0l0.2762,0l0.2761,0l0.2761,0l0.276,0l0.276,0l0.276,0l0.276,0l0.276,0l0.2759,0l0.2759,0l0.2759,0l0.2758,0l0.2758,0l0.2758,0l0.2758,0l0.2758,0l0.2757,0l0.2757,0l0.2756,0l0.2757,0l0.2756,0l0.2756,0l0.2756,0l0.2755,0l0.2756,0l0.2755,0l0.2754,0l0.2755,0l0.2754,0l0.2754,0l0.2754,0l0.2753,0l0.2754,0l0.2753,0l0.2753,0l0.2752,0l0.2753,0l0.2752,0l0.2751,0l0.2752,0l0.2751,0l0.2752,0l0.2751,0l0.275,0l0.2751,0l0.275,0l0.275,0l0.275,0l0.2749,0l0.2749,0l0.275,0l0.2748,0l0.2749,0l0.2748,0l0.2749,0l0.2747,0l0.2748,0l0.2748,0l0.2747,0l0.2747,0l0.2747,0l0.2746,0l0.2747,0l0.2746,0l0.2746,0l0.2745,0l0.2746,0l0.2745,0l0.2745,0l0.2745,0l0.2745,0l0.2744,0l0.2744,0l0.2744,0l0.2744,0l0.2743,0l0.2744,0l0.2743,0l0.2743,0l0.2742,0l0.2743,0l0.2742,0l0.2742,0l0.2742,0l0.2742,0l0.2741,0l0.2741,0l0.2741,0l0.2741,0l0.2741,0l0.274,0l0.274,0l0.274,0l0.274,0l0.2739,0l0.274,0l0.2739,0l0.2739,0l0.2739,0l0.2738,0l0.2739,0l0.2738,0l0.2738,0l0.2738,0l0.2737,0l0.2738,0l0.2737,0l0.2737,0l0.2737,0l0.2736,0l0.2737,0l0.2736,0l0.2736,0l0.2736,0l0.2736,0l0.2735,0l0.2735,0l0.2735,0l0.2735,0l0.2735,0l0.2735,0l0.2734,0l0.2734,0l0.2734,0l0.2734,0l0.2734,0l0.2733,0l0.2733,0l0.2733,0l0.2733,0l0.2733,0l0.2732,0l0.2733,0l0.2732,0l0.2732,0l0.2732,0l0.2731,0l0.2732,0l0.2731,0l0.2731,0l0.2731,0l0.2731,0l0.2731,0l0.273,0l0.273,0l0.2731,0l0.2729,0l0.273,0l0.273,0l0.2729,0l0.2729,0l0.273,0l0.2729,0l0.2728,0l0.2729,0l0.2728,0l0.2729,0l0.2728,0l0.2728,0l0.2727,0l0.2728,0l0.2727,0l0.2728,0l0.2727,0l0.2727,0l0.2727,0l0.2726,0l0.2727,0l0.2726,0l0.2726,0l0.2726,0l0.2726,0l0.2726,0l0.2726,0l0.2725,0l0.2725,0l0.2726,0l0.2725,0l0.2724,0l0.2725,0l0.2725,0l0.2724,0l0.2724,0l0.2724,0l0.2724,0l0.2724,0l0.2724,0l0.2723,0l0.2724,0l0.2723,0l0.2723,0l0.2723,0l0.2723,0l0.2722,0l0.2723,0l0.2722,0l0.2722,0l0.2723,0l0.2722,0l0.2721,0l0.2722,0l0.2722,0l0.2721,0l0.2721,0l0.2722,0l0.2721,0l0.272,0l0.2721,0l0.2721,0l0.272,0l0.2721,0l0.272,0l0.272,0l0.272,0l0.272,0l0.272,0l0.2719,0l0.272,0l0.2719,0l0.2719,0l0.2719,0l0.2719,0l0.2719,0l0.2719,0l0.2719,0l0.2718,0l0.2719,0l0.2718,0l0.2718,0l0.2718,0l0.2718,0l0.2718,0l0.2717,0l0.2718,0l0.2718,0l0.2717,0l0.2717,0l0.2717,0l0.2717,0l0.2717,0l0.2717,0l0.2717,0l0.2716,0l0.2716,0l0.2717,0l0.2716,0l0.2716,0l0.2716,0l0.2716,0l0.2716,0l0.2716,0l0.2715,0l0.2716,0l0.2715,0l0.2715,0l0.2716,0l0.2715,0l0.2715,0l0.2715,0l0.2714,0l0.2715,0l0.2715,0l0.2714,0l0.2715,0l0.2714,0l0.2714,0l0.2714,0l0.2714,0l0.2714,0l0.2719,0l0.271,0l0.271,0l0.272,0l0.271,0l0.271,0l0.272,0l0.271,0l0.271,0l0.272,0l0.271,0l0.271,0l0.271,0l0.272,0l0.271,0l0.271,0l0.271,0l0.272,0l0.271,0l0.271,0l0.271,0l0.272,0l0.271,0l0.271,0l0.271,0l0.271,0l0.271,0l0.272,0l0.271,0l0.271,0l0.271,0l0.271,0l0.271,0l0.271,0l0.271,0l0.272,0l0.271,0l0.271,0l0.271,0l0.271,0l0.271,0l0.271,0l0.271,0l0.271,0l0.271,0l0.271,0l0.271,0l0.271,0l0.271,0l0.271,0l0.271,0l0.271,0l0.271,0l0.271,0l0.271,0l0.271,0l0.271,0l0.271,0l0.271,0l0.271,0l0.271,0l0.271,0l0.271,0l0.271,0l0.271,0l0.271,0l0.271,0l0.27,0l0.271,0l0.271,0l0.271,0l0.271,0l0.271,0l0.271,0l0.271,0l0.27,0l0.271,0l0.271,0l0.271,0l0.271,0l0.271,0l0.271,0l0.27,0l0.271,0l0.271,0l0.271,0l0.271,0l0.271,0l0.27,0l0.271,0l0.271,0l0.271,0l0.271,0l0.27,0l0.271,0l0.271,0l0.271,0l0.271,0l0.27,0l0.271,0l0.271,0l0.271,0l0.27,0l0.271,0l0.271,0l0.271,0l0.27,0l0.271,0l0.271,0l0.271,0l0.27,0l0.271,0l0.271,0l0.271,0l0.211,0l0.993,-1304.007l0.025,-32.737l16.714,28.149c1.595,2.687 3.19,5.374 4.786,8.061c6.602,11.119 13.206,22.24 19.805,33.364l-7.74,4.592l7.74,-4.592l2.226,3.752l0.001,0.001l2.121,3.575l0,0c4.656,7.849 9.307,15.671 14.004,23.458c3.851,6.382 7.669,12.824 11.378,19.37l0.002,0.004c4.741,8.38 9.602,16.665 14.611,24.878c6.133,10.047 12.235,20.132 18.253,30.283l0.001,0.002l1.19,2.008c0,0 0,0.001 0.001,0.001c2.004,3.382 4.009,6.766 6.013,10.151l-7.745,4.584l7.745,-4.584c3.572,6.034 7.153,12.066 10.736,18.1c1.351,2.273 2.701,4.547 4.051,6.82l1.883,3.172l2.375,4l1.188,2l11.281,19l11.281,19l1.188,2l2.375,4l5.934,9.995c3.58,6.029 7.159,12.057 10.739,18.085c8.197,13.803 16.396,27.611 24.581,41.428l0.001,0.001c3.807,6.428 7.612,12.85 11.427,19.265c1.597,2.686 3.194,5.372 4.79,8.058l-7.736,4.599l7.736,-4.599l1.212,2.039c0.001,0 0.001,0 0.001,0c5.402,9.086 10.782,18.194 16.12,27.334l0,0l1.056,1.809l1.047,1.793c5.971,10.226 12.068,20.386 18.233,30.535c0.372,-0.618 0.744,-1.235 1.114,-1.853c0.743,-1.239 1.487,-2.478 2.234,-3.715l0.002,-0.005c3.948,-6.538 7.876,-13.091 11.811,-19.659l1.157,-1.93l7.72,4.626l-7.72,-4.626l2.508,-4.186c0.691,-1.154 1.382,-2.307 2.073,-3.461c4.539,-7.586 9.127,-15.218 13.853,-22.792l0.003,-0.006c5.414,-8.662 10.694,-17.408 15.886,-26.233l1.159,-1.97l0.004,-0.007l0.004,-0.007c1.112,-1.882 2.216,-3.753 3.314,-5.626l1.023,-1.749l0.005,-0.008c0.135,-0.231 0.268,-0.456 0.397,-0.677c1.29,-2.195 2.296,-3.907 3.054,-5.497c-0.114,-0.194 -0.281,-0.469 -0.564,-0.931c-0.943,-1.456 -1.866,-2.918 -2.772,-4.384l-0.004,-0.006l-1.422,-2.307c-0.007,-0.01 -0.013,-0.021 -0.02,-0.031c-2.649,-4.227 -5.201,-8.477 -7.7,-12.723l-0.003,-0.005c-1.057,-1.8 -2.118,-3.599 -3.18,-5.397c-4.636,-7.84 -9.24,-15.693 -13.832,-23.534c-4.471,-7.634 -8.937,-15.252 -13.431,-22.849c-5.097,-8.61 -10.177,-17.232 -15.237,-25.866l0,-0.001l-1.081,-1.844c-2.55,-4.352 -5.099,-8.703 -7.647,-13.055c-2.925,-4.993 -5.848,-9.986 -8.773,-14.978l-1.08,-1.842l7.765,-4.551l-7.765,4.55c-4.897,-8.356 -9.802,-16.7 -14.73,-25.028c-4.662,-7.876 -9.298,-15.764 -13.919,-23.653l0,0c-7.496,-12.8 -15.024,-25.581 -22.581,-38.346c-7.199,-12.161 -14.376,-24.338 -21.521,-36.536l0,-0.001c-4.981,-8.505 -9.966,-16.995 -14.979,-25.464c-4.662,-7.875 -9.297,-15.762 -13.918,-23.651l0,-0.001c-5.35,-9.135 -10.699,-18.253 -16.081,-27.347c-5.122,-8.65 -10.205,-17.317 -15.273,-25.976l0,0c-0.569,-0.971 -1.135,-1.94 -1.7,-2.907c-3.015,-5.156 -5.996,-10.255 -9.043,-15.318c-3.995,-6.602 -7.902,-13.238 -11.742,-19.92l-0.001,-0.003c-5.072,-8.831 -10.135,-17.584 -15.345,-26.234l-47.282,-80.3304zm0,0l0.007,0.012m-0.007,-0.012l0.007,0.012m0,0c5.038,8.8013 10.166,17.549 15.419,26.2434c5.701,9.4427 11.258,18.9803 16.772,28.5948l0.004,0.0081m-32.195,-54.8463l32.195,54.8463m0,0c4.935,8.5847 10.001,17.0591 15.08,25.4721l-15.08,-25.4721z" />
        <path id="svg_3" mask="url(#path-2-inside-1_0_1)" stroke-width="36" stroke="white"
            d="m1137,0c0.33,0 0.66,0 1,0c0.28,28.2256 0.49,56.451 0.62,84.6777c0.06,13.1079 0.15,26.2143 0.29,39.3223c0.12,11.431 0.19,22.862 0.22,34.294c0.01,6.047 0.05,12.093 0.14,18.139c0.08,5.706 0.11,11.41 0.09,17.116c0,2.08 0.02,4.161 0.07,6.241c0.32,15.014 -3.02,24.273 -12.03,36.305c-1.86,2.529 -3.47,5.179 -5.07,7.878c-0.51,0.842 -1.02,1.684 -1.55,2.552c-0.5,0.837 -1.01,1.675 -1.53,2.537c-5.01,8.268 -10.05,16.518 -15.12,24.75c-0.67,1.084 -1.34,2.168 -2.03,3.284c-1.35,2.202 -2.71,4.404 -4.07,6.606c-3.34,5.431 -6.69,10.865 -10.03,16.298c-4.02,6.536 -8.04,13.072 -12.07,19.605c-6.98,11.335 -13.94,22.685 -20.85,34.064c-4.36,7.164 -8.76,14.295 -13.19,21.418c-4,6.45 -7.95,12.926 -11.89,19.413c-4.95,8.151 -9.94,16.275 -14.97,24.379c-9.47,15.272 -18.887,30.575 -28.217,45.933c-4.889,8.047 -9.818,16.067 -14.781,24.069c-10.058,16.217 -20.047,32.476 -29.954,48.786c-4.356,7.165 -8.762,14.297 -13.184,21.42c-4,6.45 -7.955,12.926 -11.894,19.413c-4.95,8.151 -9.941,16.275 -14.967,24.379c-10.058,16.218 -20.047,32.478 -29.955,48.788c-4.356,7.165 -8.762,14.297 -13.184,21.42c-4,6.45 -7.955,12.926 -11.894,19.413c-4.95,8.151 -9.941,16.275 -14.967,24.379c-9.471,15.272 -18.89,30.575 -28.22,45.933c-4.889,8.047 -9.818,16.067 -14.781,24.069c-9.471,15.271 -18.889,30.574 -28.219,45.931c-4.889,8.047 -9.818,16.067 -14.781,24.069c-10.052,16.209 -20.039,32.459 -29.938,48.762c-3.419,5.624 -6.865,11.23 -10.34,16.82c-1.64,2.641 -3.272,5.288 -4.902,7.935c-1.661,2.695 -3.343,5.369 -5.078,8.016c-9.629,15.2 -9.356,31.528 -9.293,48.909c-0.006,2.447 -0.013,4.895 -0.023,7.342c-0.016,5.298 -0.019,10.595 -0.012,15.895c0.011,7.88 -0.002,15.75 -0.019,23.63c-0.027,13.26 -0.036,26.51 -0.035,39.77c0.001,13.11 -0.006,26.23 -0.024,39.35c-0.001,0.81 -0.002,1.63 -0.003,2.47c-0.006,4.15 -0.012,8.3 -0.017,12.45c-0.042,29.35 -0.065,58.7 -0.077,88.05c-0.012,28.51 -0.032,57.02 -0.063,85.52c-0.002,1.32 -0.002,1.32 -0.003,2.67c-0.01,8.83 -0.02,17.66 -0.03,26.49c-0.02,17.99 -0.04,35.98 -0.058,53.97c-0.002,1.24 -0.002,1.24 -0.003,2.51c-0.026,25.34 -0.047,50.68 -0.064,76.02c-0.001,0.71 -0.001,1.43 -0.001,2.17c-0.02,29.13 -0.034,58.25 -0.049,87.37c-40.59,0 -81.18,0 -123,0c-0.418,-69.13 -0.418,-69.13 -0.537,-90.53c-0.004,-0.77 -0.009,-1.53 -0.013,-2.32c-0.143,-25.71 -0.265,-51.42 -0.371,-77.13c-0.004,-0.84 -0.007,-1.68 -0.011,-2.54c-0.075,-18.25 -0.147,-36.5 -0.216,-54.75c-0.034,-8.95 -0.068,-17.9 -0.103,-26.85c-0.004,-0.89 -0.007,-1.78 -0.011,-2.7c-0.112,-28.83 -0.273,-57.66 -0.46,-86.49c-0.191,-29.64 -0.333,-59.29 -0.413,-88.93c-0.012,-4.19 -0.024,-8.39 -0.036,-12.58c-0.002,-0.83 -0.005,-1.65 -0.007,-2.5c-0.04,-13.25 -0.132,-26.5 -0.243,-39.75c-0.112,-13.34 -0.167,-26.68 -0.168,-40.02c-0.001,-7.22 -0.027,-14.44 -0.122,-21.66c-0.694,-54.666 -0.694,-54.666 14.989,-72.25c2.47,-2.869 4.149,-5.921 5.941,-9.25c0.551,-0.964 1.102,-1.927 1.67,-2.92c0.531,-0.934 1.063,-1.868 1.611,-2.83c4.905,-8.559 9.901,-17.055 15,-25.5c5.792,-9.596 11.438,-19.268 17.02,-28.987c4.423,-7.697 8.908,-15.354 13.435,-22.99c4.454,-7.515 8.879,-15.048 13.295,-22.585c0.723,-1.234 1.446,-2.468 2.169,-3.702c2.914,-4.974 5.828,-9.949 8.74,-14.924c9.873,-16.868 19.792,-33.707 29.772,-50.512c1.488,-2.505 2.975,-5.01 4.462,-7.516c3.988,-6.719 7.978,-13.437 11.968,-20.156c3.196,-5.381 6.391,-10.763 9.586,-16.144c1.974,-3.325 3.948,-6.65 5.923,-9.974c3.585,-6.036 7.168,-12.072 10.744,-18.113c8.237,-13.914 16.512,-27.801 24.929,-41.607c5.722,-9.389 11.357,-18.828 16.957,-28.29c6.281,-10.611 12.623,-21.181 19.042,-31.709c5.723,-9.389 11.357,-18.828 16.958,-28.291c6.281,-10.611 12.623,-21.181 19.042,-31.709c5.723,-9.389 11.357,-18.829 16.958,-28.291c8.042,-13.583 16.196,-27.095 24.412,-40.573c3.513,-5.765 7.02,-11.533 10.526,-17.302c0.349,-0.575 0.698,-1.149 1.058,-1.741c5.533,-9.109 11.027,-18.241 16.504,-27.384c7.913,-13.209 15.889,-26.378 23.891,-39.532c3.185,-5.237 6.365,-10.477 9.546,-15.716c1.771,-2.917 3.542,-5.835 5.313,-8.752c0.708,-1.167 1.417,-2.333 2.125,-3.5c55.25,-91 55.25,-91 56.313,-92.75c0.708,-1.167 1.416,-2.334 2.125,-3.5c1.77,-2.915 3.54,-5.831 5.31,-8.746c3.197,-5.267 6.397,-10.535 9.587,-15.805c7.88,-12.999 15.79,-25.974 23.77,-38.91c4.87,-7.91 9.71,-15.844 14.52,-23.789c8.1,-13.372 16.29,-26.691 24.5,-40c2.71,-4.395 5.42,-8.791 8.13,-13.1875c0.66,-1.0789 1.32,-2.1579 2.01,-3.2695c4.33,-7.0412 8.63,-14.0999 12.92,-21.168c5.37,-8.8375 10.82,-17.6133 16.32,-26.3687c4.42,-7.0472 8.75,-14.1404 13.06,-21.2563c10.43,-17.2161 10.43,-17.2161 14.56,-22.75z" />
        <path stroke="white" id="svg_4" stroke-width="18"
            d="m1145.01777,1381.48132l0,0l0.00977,3.55c0.01955,5.87 0.0391,11.75 0.04887,17.62l-8.78644,0.03l8.78644,-0.03c0.13683,46.68 0.3714,93.36 0.64506,140.05l0.1075,0l0.23457,0l0.24434,0l0.23457,0l0.23456,0l0.24434,0l0.23457,0l0.24434,0l0.23456,0l0.23457,0l0.24434,0l0.23456,0l0.23457,0l0.24434,0l0.23456,0l0.24434,0l0.23457,0l0.23456,0l0.24434,0l0.23457,0l0.23456,0l0.24434,0l0.23457,0l0.23457,0l0.24433,0l0.23457,0l0.23457,0l0.24434,0l0.23456,0l0.23457,0l0.24434,0l0.23456,0l0.23457,0l0.24434,0l0.23456,0l0.23457,0l0.24434,0l0.23456,0l0.23457,0l0.24434,0l0.23456,0l0.23457,0l0.23457,0l0.24433,0l0.23457,0l0.23457,0l0.24434,0l0.23456,0l0.23457,0l0.24434,0l0.23456,0l0.23457,0l0.23456,0l0.24434,0l0.23457,0l0.23456,0l0.23457,0l0.24434,0l0.23456,0l0.23457,0l0.23457,0l0.24434,0l0.23456,0l0.23457,0l0.23456,0l0.24434,0l0.23457,0l0.23456,0l0.23457,0l0.24434,0l0.23456,0l0.23457,0l0.23457,0l0.24434,0l0.23456,0l0.23457,0l0.23456,0l0.24434,0l0.23457,0l0.23456,0l0.23457,0l0.23456,0l0.24434,0l0.23457,0l0.23457,0l0.23456,0l0.23457,0l0.24434,0l0.23456,0l0.23457,0l0.23456,0l0.23457,0l0.24434,0l0.23456,0l0.23457,0l0.23457,0l0.23456,0l0.23457,0l0.24434,0l0.23456,0l0.23457,0l0.23456,0l0.23457,0l0.23456,0l0.24434,0l0.23457,0l0.23457,0l0.23456,0l0.23457,0l0.23456,0l0.24434,0l0.23457,0l0.23456,0l0.23457,0l0.23457,0l0.23456,0l0.23457,0l0.24434,0l0.23456,0l0.23457,0l0.23456,0l0.23457,0l0.23456,0l0.23457,0l0.23457,0l0.24434,0l0.23456,0l0.23457,0l0.23456,0l0.23457,0l0.23456,0l0.23457,0l0.23457,0l0.23456,0l0.24434,0l0.23457,0l0.23456,0l0.23457,0l0.23456,0l0.23457,0l0.23456,0l0.23457,0l0.23457,0l0.23456,0l0.24434,0l0.23457,0l0.23456,0l0.23457,0l0.23456,0l0.23457,0l0.23457,0l0.23456,0l0.23457,0l0.23456,0l0.23457,0l0.23456,0l0.23457,0l0.23457,0l0.24434,0l0.23456,0l0.23457,0l0.23456,0l0.23457,0l0.23456,0l0.23457,0l0.23457,0l0.23456,0l0.23457,0l0.23456,0l0.23457,0l0.23456,0l0.23457,0l0.23457,0l0.23456,0l0.23457,0l0.23456,0l0.23457,0l0.23456,0l0.23457,0l0.23457,0l0.23456,0l0.23457,0l0.23456,0l0.23457,0l0.23456,0l0.24434,0l0.23457,0l0.23456,0l0.23457,0l0.23457,0l0.23456,0l0.23457,0l0.23456,0l0.23457,0l0.23456,0l0.23457,0l0.23457,0l0.23456,0l0.23457,0l0.23456,0l0.23457,0l0.23456,0l0.23457,0l0.23457,0l0.23456,0l0.22479,0l0.23457,0l0.23457,0l0.23456,0l0.23457,0l0.23456,0l0.23457,0l0.23456,0l0.23457,0l0.23457,0l0.23456,0l0.23457,0l0.23456,0l0.23457,0l0.23456,0l0.23457,0l0.23457,0l0.23456,0l0.23457,0l0.23456,0l0.23457,0l0.23456,0l0.23457,0l0.23457,0l0.23456,0l0.23457,0l0.23456,0l0.23457,0l0.22479,0l0.23457,0l0.23456,0l0.23457,0l0.23456,0l0.23457,0l0.23457,0l0.23456,0l0.23457,0l0.23456,0l0.23457,0l0.23456,0l0.23457,0l0.23457,0l0.23456,0l0.22479,0l0.23457,0l0.23457,0l0.23456,0l0.23457,0l0.23456,0l0.23457,0l0.23456,0l0.23457,0l0.23457,0l0.23456,0l0.23457,0l0.22479,0l0.23456,0l0.23457,0l0.23457,0l0.23456,0l0.23457,0l0.23456,0l0.23457,0l0.23456,0l0.23457,0l0.23457,0l0.22479,0l0.23456,0l0.23457,0l0.23457,0l0.23456,0l0.23457,0l0.23456,0l0.23457,0l0.23456,0l0.2248,0l0.23456,0l0.23457,0l0.23456,0l0.23457,0l0.23456,0l0.23457,0l0.23457,0l0.23456,0l0.22479,0l0.23457,0l0.23457,0l0.23456,0l0.23457,0l0.23456,0l0.23457,0l0.23456,0l0.2248,0l0.23456,0l0.23457,0l0.23456,0l0.23457,0l0.23457,0l0.23456,0l0.22479,0l0.23457,0l0.23456,0l0.23457,0l0.23457,0l0.23456,0l0.23457,0l0.23456,0l0.2248,0l0.23456,0l0.23457,0l0.23456,0l0.23457,0l0.23456,0l0.2248,0l0.23456,0l0.23457,0l0.23456,0l0.23457,0l0.23456,0l0.23457,0l0.22479,0l0.23457,0l0.23456,0l0.23457,0l0.23457,0l0.23456,0l0.22479,0l0.23457,0l0.23456,0l0.23457,0l0.23457,0l0.23456,0l0.23457,0l0.22479,0l0.23457,0l0.23456,0l0.23457,0l0.23456,0l0.23457,0l0.22479,0l0.23457,0l0.23456,0l0.23457,0l0.23456,0l0.2248,0l0.23456,0l0.23457,0l0.23456,0l0.23457,0l0.23456,0l0.2248,0l0.23456,0l0.23457,0l0.23456,0l0.23457,0l0.23457,0l0.22479,0l0.23456,0l0.23457,0l0.23456,0l0.23457,0l0.22479,0l0.23457,0l0.23456,0l0.23457,0l0.23457,0l0.23456,0l0.22479,0l0.23457,0l0.23456,0l0.23457,0l0.23457,0l0.22479,0l0.23456,0l0.23457,0l0.23457,0l0.23456,0l0.22479,0l0.23457,0l0.23457,0l0.23456,0l0.23457,0l0.22479,0l0.23456,0l0.23457,0l0.23457,0l0.23456,0l0.22479,0l0.23457,0l0.23457,0l0.23456,0l0.23457,0l0.22479,0l0.23456,0l0.23457,0l0.23457,0l0.23456,0l0.22479,0l0.23457,0l0.23457,0l0.23456,0l0.23457,0l0.22479,0l0.23456,0l0.23457,0l0.23457,0l0.23456,0l0.22479,0l0.23457,0l0.23457,0l0.23456,0l0.23457,0l0.22479,0l0.23456,0l0.23457,0l0.23457,0l0.23456,0l0.22479,0l0.23457,0l0.23457,0l0.23456,0l0.23457,0l0.22479,0l0.23456,0l0.23457,0l0.23457,0l0.22479,0l0.23456,0l0.23457,0l0.23457,0l0.23456,0l0.22479,0l0.23457,0l0.03909,0l0,-0.43l0,-1.18l0,-1.18l0,-1.17l0,-1.18l0,-1.18l0,-1.18l0,-1.18l0,-1.17l0,-1.18l0,-1.18l0,-1.17l0,-1.18l0,-1.18l0,-1.17l0,-1.18l0,-1.18l0,-1.17l0,-1.18l0,-1.17l0,-1.18l0,-1.18l0,-1.17l0,-1.18l0,-1.17l0,-1.18l0,-1.17l0,-1.18l0,-1.17l0,-1.18l0,-1.17l0,-1.18l0,-1.17l0,-1.17l0,-1.18l0,-1.17l0,-1.18l0,-1.17l0,-1.17l0,-1.18l0,-1.17l0,-1.17l0,-1.17l0,-1.18l0,-1.17l0,-1.17l0,-1.18l0,-1.17l0,-1.17l0,-1.17l0,-1.17l0,-1.18l0,-1.17l0,-1.17l0,-1.17l0,-1.17l0,-1.17l0,-1.18l0,-1.17l0,-1.17l0,-1.17l0,-1.17l0,-1.17l0,-1.17l0,-1.17l0,-1.17l0,-1.17l0,-1.17l0,-1.17l0,-1.17l0,-1.17l0,-1.17l0,-1.17l0,-1.17l0,-1.17l0,-1.17l0,-1.17l0,-1.16l0,-1.17l0,-1.17l0,-1.17l0,-1.17l0,-1.17l0,-1.17l0,-1.16l0,-1.17l0,-1.17l0,-1.17l0,-1.16l0,-1.17l0,-1.17l0,-1.17l0,-1.16l0,-1.17l0,-1.17l0,-1.17l0,-1.16l0,-1.17l0,-1.17l0,-1.16l0,-1.17l0,-1.16l0,-1.17l0,-1.17l0,-1.16l0,-1.17l0,-1.16l0,-1.17l0,-1.16l0,-1.17l0,-1.17l0,-1.16l0,-1.17l0,-1.16l0,-1.17l0,-1.16l0,-1.16l0,-1.17l0,-1.16l0,-1.17l0,-1.16l0,-1.17l0,-1.16l0,-1.16l0,-1.17l0,-1.16l0,-1.17l0,-1.16l0,-1.16l0,-1.17l0,-1.16l0,-1.16l0,-1.17l0,-1.16l0,-1.16l0,-1.16l0,-1.17l0,-1.16l0,-1.16l0,-1.16l0,-1.17l0,-1.16l0,-1.16l0,-1.16l0,-1.16l0,-1.17l0,-1.16l0,-1.16l0,-1.16l0,-1.16l0,-1.16l0,-1.17l0,-1.16l0,-1.16l0,-1.16l0,-1.16l0,-1.16l0,-1.16l0,-1.16l0,-1.16l0,-1.16l0,-1.16l0,-1.16l0,-1.16l0,-1.16l0,-1.16l0,-1.16l0,-1.16l0,-1.16l0,-1.16l0,-1.16l0,-1.16l0,-1.16l0,-1.16l0,-1.16l0,-1.16l0,-1.16l0,-1.15l0,-1.16l0,-1.16l0,-1.16l0,-1.16l0,-1.16l0,-1.16l0,-1.15l0,-1.16l0,-1.16l0,-1.16l0,-1.16l0,-1.15l0,-1.16l0,-1.16l0,-1.16l0,-1.16l0,-1.15l0,-1.16l0,-1.16l0,-1.15l0,-1.16l0,-1.16l0,-1.16l0,-1.15l0,-1.16l0,-1.16l0,-1.15l0,-1.16l0,-1.16l0,-1.15l0,-1.16l0,-1.15l0,-1.16l0,-1.16l0,-1.15l0,-1.16l0,-1.15l0,-1.16l0,-1.16l0,-1.15l0,-1.16l0,-1.15l0,-1.16l0,-1.15l0,-1.16l0,-1.15l0,-1.16l0,-1.15l0,-1.16l0,-1.15l0,-1.16l0,-1.15l0,-1.16l0,-1.15l0,-1.16l0,-1.15l0,-1.16l0,-1.15l0,-1.15l0,-1.16l0,-1.15l0,-1.16l0,-1.15l0,-1.15l0,-1.16l0,-1.15l0,-1.16l0,-1.15l0,-1.15l0,-1.16l0,-1.15l0,-1.15l0,-1.16l0,-1.15l0,-1.15l0,-1.16l0,-1.15l0,-1.15l0,-1.15l0,-1.16l0,-1.15l0,-1.15l0,-1.16l0,-1.15l0,-1.15l0,-1.15l0,-1.16l0,-1.15l0,-1.15l0,-1.15l0,-1.15l0,-1.16l0,-1.15l0,-1.15l0,-1.15l0,-1.15l0,-1.16l0,-1.15l0,-1.15l0,-1.15l0,-1.15l0,-1.15l0,-1.15l0,-1.16l0,-1.15l0,-1.15l0,-1.15l0,-1.15l0,-1.15l0,-1.15l0,-1.15l0,-1.15l0,-1.15l0,-1.16l0,-1.15l0,-1.15l0,-1.15l0,-1.15l0,-1.15l0,-1.15l0,-1.15l0,-1.15l0,-1.15l0,-1.15l0,-1.15l0,-1.15l0,-1.15l0,-1.15l0,-1.15l0,-1.15l0,-1.15l0,-1.15l0,-1.15l0,-1.15l0,-1.15l0,-1.15l0,-1.15l0,-1.15l0,-1.15l0,-1.15l0,-1.14l0,-1.15l0,-1.15l0,-1.15l0,-1.15l0,-1.15l0,-1.15l0,-1.15l0,-1.15l0,-1.15l0,-1.14l0,-1.15l0,-1.15l0,-1.15l0,-1.15l0,-1.15l0,-1.15l0,-1.14l0,-1.15l0,-1.15l0,-1.15l0,-1.15l0,-1.15l0,-1.14l0,-1.15l0,-1.15l0,-1.15l0,-1.15l0,-1.15l0,-1.14l0,-1.15l0,-1.15l0,-1.15l0,-1.14l0,-1.15l0,-1.15l0,-1.15l0,-1.15l0,-1.14l0,-1.15l0,-1.15l0,-1.15l0,-1.14l0,-1.15l0,-1.15l0,-1.15l0,-1.14l0,-1.15l0,-1.15l0,-1.14l0,-1.15l0,-1.15l0,-1.15l0,-1.14l0,-1.15l0,-1.15l0,-1.14l0,-1.15l0,-1.15l0,-1.14l0,-1.15l0,-1.15l0,-1.14l0,-1.15l0,-1.15l0,-1.14l0,-1.15l0,-1.15l0,-1.14l0,-1.15l0,-1.15l0,-1.14l0,-1.15l0,-1.15l0,-1.14l0,-1.15l0,-1.15l0,-1.14l0,-1.15l0,-1.14l0,-1.15l0,-1.15l0,-1.14l0,-1.15l0,-1.15l0,-1.14l0,-1.15l0,-1.14l0,-1.15l0,-1.15l0,-1.14l0,-1.15l0,-1.14l0,-1.15l0,-1.14l0,-1.15l0,-1.15l0,-1.14l0,-1.15l0,-1.14l0,-1.15l0,-1.14l0,-1.15l0,-1.15l0,-1.14l0,-1.15l0,-1.14l0,-1.15l0,-1.14l0,-1.15l0,-1.14l0,-1.15l0,-1.15l0,-1.14l0,-1.15l0,-1.14l0,-1.15l0,-1.14l0,-1.15l0,-1.14l0,-1.15l0,-1.14l0,-1.15l0,-1.14l0,-1.15l0,-1.14l0,-1.15l0,-1.14l0,-1.15l0,-1.14l0,-1.15l0,-1.14l0,-1.15l0,-1.14l0,-1.15l0,-1.15l0,-1.14l0,-1.15l0,-1.14l0,-1.15l0,-1.14l0,-1.15l0,-1.14l0,-1.14l0,-1.15l0,-1.14l0,-1.15l0,-1.14l0,-1.15l0,-1.14l0,-1.15l0,-1.14l0,-1.149l0,-1.145l0,-1.145l0,-1.144l0,-1.145l0,-1.145l0,-1.145l0,-1.145l0,-1.144l0,-0.029c-1.83743,3.086 -3.67486,6.181 -5.51229,9.286m-97.87255,382.76c1.21063,-21.50735 -0.16615,-37.81 -0.29321,-56.72l0.29321,56.72zm-0.52777,-114.9l0,0c0.02932,19.4 0.1075,38.79 0.23456,58.18l-0.23456,-58.18zm0,0c-0.01955,-11.98 -0.07819,-23.97 -0.1857,-35.96l0.1857,35.96zm-0.26389,-60.52l0,0.01c-0.01955,8.19 0,16.37 0.07819,24.55l-0.07819,-24.56zm0,0c0.00977,-4.75 0,-9.54 -0.07819,-14.35c-0.31275,-21.01 0.3714,-33.58 11.80648,-48.32l0.02932,-0.03m-11.75761,62.7l11.75761,-62.7m0,0l0.02932,-0.03m-0.02932,0.03l0.02932,-0.03m0,0c2.56067,-3.37 4.57403,-6.82 6.36259,-9.94c1.13374,-1.88 2.27724,-3.76 3.41098,-5.65l0,0m-9.77357,15.59l9.77357,-15.59m0,0c5.49275,-9.11 10.93663,-18.23 16.35118,-27.38c6.0303,-10.19 12.10946,-20.35 18.22772,-30.5l0,0m-34.5789,57.88l34.5789,-57.88m0,0c4.21241,-6.98 8.3955,-13.98 12.54926,-20.99c5.43411,-9.14 10.90731,-18.26 16.40983,-27.39l0,0m-28.95909,48.38l28.95909,-48.38m0,0c4.56426,-7.57 9.07965,-15.17 13.56572,-22.76l-13.56572,22.76z" />
    </g>
</svg>