<svg version="1.1" id="svg_YM" xmlns="http://www.w3.org/2000/svg" xmlns:xlink="http://www.w3.org/1999/xlink" x="0px"
	y="0px" viewBox="0 0 480 480" width="auto" height="auto" style="enable-background:new 0 0 480 480;"
	xml:space="preserve">
	<style type="text/css">
		.white {
			fill: #FFFFFF;
		}

		.orange {
			fill: #F26522;
		}
		
	</style>
	<g>
		<g>
			<path class="white" d="M198.82,153.82l-16.56,27.39l-19.03-32.09L123.4,82.07v316.21H90.04V25.89h33.49
			c20.18,34.31,48.48,82.34,72.7,123.57C197.09,150.94,197.96,152.38,198.82,153.82z" />
		</g>
		<g>
			<polygon class="white" points="392.31,256.55 392.31,398.27 362.95,398.27 362.95,304.49 392.27,256.55 		" />
		</g>
		<g>
			<path class="orange" d="M362.96,25.89v51.98l-90.99,148.16l-15.94,25.95c-0.87,1.73-1.36,3.42-1.52,5.97
			c-0.04,0.62-0.08,1.28-0.08,2.02v138.31h-29.29V257.95c-0.04-0.82-0.12-1.61-0.25-2.43v-0.04l16.76-28.5l0.54-0.95l9.31-15.86
			c4.65-7.87,10.34-17.42,16.68-28.09c5.85-9.76,12.27-20.47,19.03-31.72C311.97,109.17,341.26,60.94,362.96,25.89z" />
		</g>

	</g>
</svg>