<?xml version="1.0" encoding="UTF-8"?>
<svg version="1.1" xmlns="http://www.w3.org/2000/svg" width="1270" height="1786">
    <path
        d="M0 0 C46.2 0 92.4 0 140 0 C145.89489588 9.418334 151.70157841 18.78474358 157.1875 28.4375 C162.19506359 37.18540701 167.28814185 45.87227569 172.5 54.5 C178.24884756 64.02099039 183.84217535 73.62166827 189.375 83.26953125 C194.26356638 91.77359985 199.29181721 100.18668389 204.36181641 108.58349609 C209.62210451 117.31758535 214.72388391 126.13790445 219.80126953 134.97924805 C223.61203283 141.61021692 227.48632673 148.1908438 231.4453125 154.734375 C235.10267837 160.81056876 238.66779497 166.94181893 242.25 173.0625 C247.31654175 181.7183578 252.39031649 190.36950124 257.5 199 C262.89419005 208.11270545 268.25201541 217.24647233 273.60351562 226.38427734 C278.21963816 234.26571213 282.84744252 242.13999759 287.5 250 C292.5233295 258.48638241 297.51624777 266.99034378 302.5 275.5 C309.63648091 287.68458838 316.80673381 299.84884338 324 312 C331.56369267 324.77689604 339.09880903 337.57009578 346.60241699 350.38235474 C351.21890329 358.26443245 355.84714434 366.13931593 360.5 374 C365.43702507 382.34227071 370.34932757 390.69884253 375.25 399.0625 C375.6063855 399.67070587 375.962771 400.27891174 376.32995605 400.9055481 C379.25532466 405.89834093 382.1796791 410.8917276 385.10400391 415.88513184 C387.65220484 420.23619339 390.20078989 424.58702961 392.75 428.9375 C393.28506165 429.85065475 393.28506165 429.85065475 393.83093262 430.78225708 C398.88397183 439.40460451 403.9572476 448.0147601 409.04785156 456.61499023 C413.55290596 464.23104273 418.02821943 471.86438853 422.5 479.5 C427.09193069 487.34062357 431.68695604 495.17923406 436.31225586 503.00024414 C437.3791726 504.80536406 438.44386293 506.61180213 439.50610352 508.41967773 C441.98486981 512.63242973 444.49710065 516.81573802 447.09375 520.95703125 C447.81510132 522.12637207 447.81510132 522.12637207 448.55102539 523.31933594 C449.44657115 524.76823088 450.35632492 526.20848291 451.28295898 527.63769531 C452.46484375 529.56640625 452.46484375 529.56640625 454 533 C452.81601042 537.0162372 450.65317315 540.49681692 448.54296875 544.09375 C448.20405609 544.67289658 447.86514343 545.25204315 447.51596069 545.84873962 C446.41034589 547.73479856 445.29924327 549.61754794 444.1875 551.5 C443.80496063 552.15026154 443.42242126 552.80052307 443.02828979 553.4704895 C437.80216112 562.35402304 432.47987358 571.1693309 427.01733398 579.90991211 C422.33937315 587.40799659 417.7877458 594.97919344 413.25 602.5625 C411.72292651 605.11214109 410.1954466 607.66153864 408.66796875 610.2109375 C408.28639618 610.84781494 407.90482361 611.48469238 407.51168823 612.14086914 C403.57699498 618.70740171 399.64169895 625.27351021 395.68469238 631.82662964 C394.94229553 633.05770582 394.20146544 634.28972832 393.46228027 635.5227356 C392.43857616 637.22985429 391.40887663 638.93337341 390.37890625 640.63671875 C389.7969751 641.60311279 389.21504395 642.56950684 388.61547852 643.56518555 C387.21714077 645.67273011 385.86764491 647.3120792 384 649 C375.42619205 634.98384299 366.90986483 620.93918152 358.625 606.75 C358.27947083 606.15822968 357.93394165 605.56645935 357.57794189 604.95675659 C357.22947205 604.35993073 356.8810022 603.76310486 356.52197266 603.14819336 C351.19944943 594.03378074 345.83139382 584.94735166 340.4375 575.875 C340.03742737 575.20198853 339.63735474 574.52897705 339.22515869 573.83557129 C337.62861387 571.14992 336.03195768 568.46433503 334.43499756 565.77893066 C330.61626714 559.35680115 326.80747061 552.92881181 323 546.5 C314.817757 532.68759455 306.6210272 518.88380896 298.42333984 505.08056641 C294.84324022 499.05231704 291.26388414 493.0236262 287.68447876 486.9949646 C285.70635028 483.66329127 283.72817263 480.33164712 281.75 477 C280.9583331 475.66666681 280.16666643 474.33333347 279.375 473 C278.983125 472.34 278.59125 471.68 278.1875 471 C270.66666667 458.33333333 263.14583333 445.66666667 255.625 433 C255.23313507 432.34002014 254.84127014 431.68004028 254.43753052 431.00006104 C253.64575084 429.66653095 252.85398246 428.33299416 252.06222534 426.99945068 C250.08488008 423.66907267 248.10733981 420.33881076 246.12939453 417.00878906 C242.5449682 410.9736961 238.96202952 404.93774356 235.38627625 398.89750671 C233.38347457 395.51443719 231.37950712 392.13205927 229.375 388.75 C228.9822287 388.08721039 228.5894574 387.42442078 228.18478394 386.74154663 C222.19250245 376.63517526 216.11216828 366.58534549 209.99081421 356.5567627 C204.92801906 348.25554785 200.01710234 339.88448971 195.22900391 331.42236328 C191.57627067 324.97497154 187.80375672 318.60913188 183.97558594 312.26464844 C179.26023678 304.4476474 174.59504331 296.60152275 169.9375 288.75 C169.23038906 287.55818584 168.52327646 286.36637267 167.81616211 285.17456055 C167.08147705 283.93617432 166.34679199 282.69778809 165.58984375 281.421875 C157.39690874 267.61239964 149.19769764 253.80664866 141 240 C140.67 673.29 140.34 1106.58 140 1553 C93.8 1553 47.6 1553 0 1553 C0 1040.51 0 528.02 0 0 Z "
        fill="#FFFFFF" transform="translate(10,0)" />
    <path
        d="M0 0 C0.33 0 0.66 0 1 0 C1.28098553 28.22560774 1.492256 56.45100425 1.62174606 84.67773151 C1.68348329 97.78555009 1.76757194 110.89249699 1.90527344 123.99975586 C2.02531157 135.43121065 2.10239994 146.86203383 2.12906194 158.29410142 C2.14463488 164.34127089 2.18093013 170.38663435 2.26876068 176.43322182 C2.35096193 182.13915793 2.37519239 187.84256589 2.35729218 193.54903793 C2.36056071 195.62945929 2.38399002 197.70997601 2.4304657 199.78988075 C2.74916114 214.80434289 -0.59310722 224.06250785 -9.59999037 236.09454763 C-11.45811524 238.62350768 -13.07401293 241.2736851 -14.671875 243.97265625 C-15.18218262 244.81481689 -15.69249023 245.65697754 -16.21826172 246.5246582 C-16.72373535 247.362146 -17.22920898 248.19963379 -17.75 249.0625 C-22.76273473 257.33048581 -27.80412421 265.58003803 -32.875 273.8125 C-33.54241211 274.8960376 -34.20982422 275.9795752 -34.89746094 277.09594727 C-36.25408803 279.29794013 -37.61085925 281.4998442 -38.96777344 283.70166016 C-42.31421042 289.13298688 -45.65697995 294.56656971 -49 300 C-53.02158206 306.53630114 -57.04398402 313.07209003 -61.0703125 319.60546875 C-68.05374102 330.94022015 -75.01087458 342.28993586 -81.92236328 353.66870117 C-86.27811208 360.8325495 -90.68400572 367.9641904 -95.10620117 375.0871582 C-99.10591813 381.53696673 -103.06079667 388.01308295 -107 394.5 C-111.9505162 402.65070538 -116.94069212 410.77526444 -121.96704102 418.87939453 C-131.43807059 434.15102007 -140.85723209 449.45444809 -150.1875 464.8125 C-155.07617567 472.85914618 -160.00527678 480.87931199 -164.96777344 488.88061523 C-175.02559798 505.09817609 -185.01473723 521.35729968 -194.92163086 537.66748047 C-199.27760811 544.8317454 -203.6837554 551.9637872 -208.10620117 559.0871582 C-212.10591813 565.53696673 -216.06079667 572.01308295 -220 578.5 C-224.9505162 586.65070538 -229.94069212 594.77526444 -234.96704102 602.87939453 C-245.02500583 619.09742777 -255.0144902 635.35689299 -264.92163086 651.66748047 C-269.27760811 658.8317454 -273.6837554 665.9637872 -278.10620117 673.0871582 C-282.10591813 679.53696673 -286.06079667 686.01308295 -290 692.5 C-294.9505162 700.65070538 -299.94069212 708.77526444 -304.96704102 716.87939453 C-314.43807059 732.15102007 -323.85723209 747.45444809 -333.1875 762.8125 C-338.07617567 770.85914618 -343.00527678 778.87931199 -347.96777344 786.88061523 C-357.43865628 802.15177236 -366.85747914 817.45485474 -376.1875 832.8125 C-381.07617567 840.85914618 -386.00527678 848.87931199 -390.96777344 856.88061523 C-401.02054774 873.09003292 -411.00726892 889.33951998 -420.90625 905.64331055 C-424.32474305 911.26745687 -427.77113853 916.87314703 -431.24560547 922.46289062 C-432.88590127 925.10440595 -434.51783659 927.75092996 -436.1484375 930.3984375 C-437.80919451 933.09294214 -439.49067409 935.76743821 -441.2265625 938.4140625 C-450.85461002 953.61408645 -450.58159828 969.94187932 -450.51898193 987.32275391 C-450.52486497 989.77019967 -450.53249607 992.21764173 -450.541713 994.66507721 C-450.55769589 999.96304586 -450.56147253 1005.26080847 -450.55419731 1010.55878067 C-450.54344726 1018.43646731 -450.55574125 1026.31400381 -450.57256903 1034.19167386 C-450.60024058 1047.44688155 -450.60950358 1060.70204143 -450.60811615 1073.95727539 C-450.60680402 1087.0733431 -450.6137713 1100.18936383 -450.63169098 1113.30541992 C-450.63280237 1114.12226469 -450.63391376 1114.93910945 -450.63505882 1115.78070709 C-450.64074625 1119.92939042 -450.64658058 1124.07807353 -450.65247145 1128.22675657 C-450.69388528 1157.57857532 -450.71689443 1186.93038232 -450.72900391 1216.28222656 C-450.74080721 1244.78940156 -450.76099446 1273.29655058 -450.79248047 1301.80371094 C-450.7939324 1303.12279379 -450.7939324 1303.12279379 -450.79541365 1304.46852478 C-450.80514383 1313.300057 -450.8150439 1322.13158902 -450.82506842 1330.9631209 C-450.84548393 1348.95246367 -450.86476585 1366.9418076 -450.88336182 1384.93115234 C-450.88464631 1386.17171508 -450.88464631 1386.17171508 -450.88595675 1387.43733969 C-450.91213384 1412.77674562 -450.93350817 1438.11615242 -450.95013428 1463.45556641 C-450.95060799 1464.17469537 -450.95108171 1464.89382434 -450.95156978 1465.63474509 C-450.97068048 1494.75649503 -450.98470053 1523.87824787 -451 1553 C-491.59 1553 -532.18 1553 -574 1553 C-574.41841056 1483.86686946 -574.41841056 1483.86686946 -574.53721619 1462.46669006 C-574.54146072 1461.70347379 -574.54570526 1460.94025751 -574.55007842 1460.15391347 C-574.69278992 1434.44407049 -574.81473523 1408.73417254 -574.92115784 1383.02415466 C-574.92463843 1382.18458304 -574.92811902 1381.34501142 -574.93170509 1380.47999823 C-575.00724914 1362.23055694 -575.07943404 1343.9811038 -575.14816221 1325.7316356 C-575.18189058 1316.7811303 -575.21636066 1307.83062792 -575.2512207 1298.88012695 C-575.25467693 1297.98948 -575.25813316 1297.09883304 -575.26169412 1296.18119679 C-575.37391718 1267.35155207 -575.5350453 1238.52243477 -575.72173966 1209.69318417 C-575.91345287 1180.04880457 -576.05541881 1150.40458806 -576.13546095 1120.75968672 C-576.14680873 1116.56538009 -576.15872077 1112.37107523 -576.17097664 1108.17677116 C-576.17337113 1107.35133275 -576.17576563 1106.52589434 -576.17823269 1105.67544264 C-576.21810938 1092.42797058 -576.30988413 1079.18135042 -576.42143785 1065.93430932 C-576.53267162 1052.59214301 -576.58834813 1039.25063651 -576.58869045 1025.90799928 C-576.59038249 1018.68799027 -576.61597957 1011.47007455 -576.71070671 1004.25063324 C-577.40472714 949.58379586 -577.40472714 949.58379586 -561.72189629 932.00034797 C-559.25186682 929.13088454 -557.57271276 926.07871134 -555.78125 922.75 C-555.23017578 921.78642578 -554.67910156 920.82285156 -554.11132812 919.83007812 C-553.57958984 918.89615234 -553.04785156 917.96222656 -552.5 917 C-547.59496108 908.44083685 -542.59881366 899.94511764 -537.5 891.5 C-531.70758767 881.90419086 -526.06210073 872.23238746 -520.47998047 862.51293945 C-516.05693143 854.81618759 -511.57221256 847.15904217 -507.04541016 839.52294922 C-502.59111348 832.00758557 -498.16592681 824.47544126 -493.75 816.9375 C-493.02693834 815.70353103 -492.30387518 814.46956293 -491.58081055 813.2355957 C-488.66658988 808.26168434 -485.75330324 803.28722666 -482.84130859 798.31201172 C-472.96847619 781.44409723 -463.04942621 764.60477335 -453.06903076 747.8001709 C-451.58141175 745.2951275 -450.09433671 742.78976133 -448.60723877 740.28440857 C-444.61888279 733.5651636 -440.62943299 726.84656868 -436.63946533 720.12828064 C-433.4435284 714.74695642 -430.24796391 709.36541118 -427.05274963 703.98365784 C-425.07881791 700.65894457 -423.10469593 697.33434461 -421.13012695 694.01000977 C-417.5454172 687.97445611 -413.96221456 681.93803141 -410.38616943 675.89733887 C-402.14903602 661.98334662 -393.87429142 648.09606563 -385.4574585 634.28991699 C-379.73508928 624.90085514 -374.10039448 615.46226715 -368.5 606 C-362.21953143 595.38869902 -355.877075 584.81900773 -349.45800781 574.29101562 C-343.73548064 564.90157441 -338.10060119 555.46261639 -332.5 546 C-326.21953143 535.38869902 -319.877075 524.81900773 -313.45800781 514.29101562 C-307.7354775 504.90156926 -302.10094959 495.46241406 -296.5 486 C-288.45808086 472.41677164 -280.30426763 458.90532876 -272.08837891 445.42675781 C-268.57485552 439.66248306 -265.06769536 433.8943419 -261.5625 428.125 C-261.21330505 427.55036011 -260.86411011 426.97572021 -260.5043335 426.38366699 C-254.9707112 417.2749785 -249.47702165 408.14281443 -244 399 C-236.08733525 385.79135666 -228.11112119 372.62230303 -220.10888672 359.46777344 C-216.92374023 354.23122358 -213.74385009 348.99148214 -210.56350708 343.75201416 C-208.79254806 340.8345486 -207.02125744 337.91728439 -205.25 335 C-204.54166507 333.8333343 -203.83333174 332.66666763 -203.125 331.5 C-147.87499999 240.49999999 -147.87499999 240.49999999 -146.81251526 238.75003052 C-146.10412469 237.58326599 -145.3957405 236.4164976 -144.68736267 235.24972534 C-142.91745721 232.33452415 -141.14744139 229.41939008 -139.37719727 226.50439453 C-136.17850046 221.23697508 -132.98062157 215.96906779 -129.78683472 210.69866943 C-121.90988851 197.70026184 -113.99802754 184.72489268 -106.01928711 171.78857422 C-101.14539612 163.87949948 -96.31436943 155.94536033 -91.5 148 C-83.3961547 134.62781301 -75.20797112 121.30853833 -67 108 C-64.29060626 103.60481926 -61.58232021 99.20895827 -58.875 94.8125 C-58.21048828 93.73355469 -57.54597656 92.65460938 -56.86132812 91.54296875 C-52.52865749 84.50184748 -48.2260021 77.44308679 -43.9375 70.375 C-38.57390419 61.53748194 -33.11715166 52.76169313 -27.62060547 44.00634766 C-23.20355313 36.95908389 -18.86785428 29.86594718 -14.5625 22.75 C-4.12959853 5.53390004 -4.12959853 5.53390004 0 0 Z "
        fill="#F26522" transform="translate(1147,0)" />
    <path
        d="M0 0 C0.33 0 0.66 0 1 0 C1 195.36 1 390.72 1 592 C-39.59 592 -80.18 592 -122 592 C-122.30903687 542.32554866 -122.56737845 492.65200897 -122.71491461 442.97687035 C-122.73242306 437.10314951 -122.75054371 431.2294307 -122.76904297 425.35571289 C-122.77271531 424.18643443 -122.77638766 423.01715596 -122.78017129 421.81244481 C-122.84097589 402.91630757 -122.95129581 384.0207708 -123.08013915 365.12498897 C-123.21138013 345.71469238 -123.28888995 326.30470879 -123.31723893 306.89398676 C-123.33638344 294.93044113 -123.39669086 282.9685931 -123.51083054 271.00557048 C-123.58523086 262.78546258 -123.60711339 254.56622333 -123.58901928 246.34580373 C-123.58011144 241.61279503 -123.59308173 236.88273715 -123.66887665 232.15026283 C-123.99328605 210.85624353 -123.42833181 195.46028125 -109.63223672 178.09501851 C-107.39024986 175.21736975 -105.57746413 172.19416107 -103.73046875 169.05078125 C-102.54986179 167.13778464 -101.36887837 165.22502032 -100.1875 163.3125 C-94.58767953 154.23066936 -89.02904358 145.12498981 -83.5 136 C-77.31138221 125.78646606 -71.0763487 115.60274779 -64.80859375 105.4375 C-60.5158054 98.47232365 -56.24777344 91.49271143 -52 84.5 C-46.42978499 75.33027692 -40.81239993 66.1903943 -35.18066406 57.05834961 C-30.53200534 49.51183298 -25.92578241 41.94078036 -21.33682251 34.35787964 C-15.94685802 25.45391196 -10.53514447 16.56475988 -5 7.75 C-4.50145508 6.95150635 -4.00291016 6.1530127 -3.48925781 5.33032227 C-2.35465695 3.53522451 -1.18197188 1.76426685 0 0 Z "
        fill="#FFFFFF" transform="translate(1269,961)" />
    <path
        d="M0 0 C5.28 0 10.56 0 16 0 C30.37971205 36.18951714 44.62684107 72.42429029 58 109 C62.94680829 96.93336686 67.87097937 84.85834506 72.6953125 72.7421875 C73.01332321 71.94359818 73.33133392 71.14500885 73.65898132 70.32221985 C73.98155411 69.51213974 74.30412689 68.70205963 74.63647461 67.86743164 C81.13232622 51.55539502 87.72138637 35.28520248 94.4375 19.0625 C94.8124762 18.15457703 95.18745239 17.24665405 95.5737915 16.31121826 C96.62835419 13.75966176 97.6865056 11.20962925 98.74609375 8.66015625 C99.06197952 7.89551559 99.3778653 7.13087494 99.70332336 6.34306335 C101.88463559 1.11536441 101.88463559 1.11536441 103 0 C107.95 0 112.9 0 118 0 C118 41.25 118 82.5 118 125 C114.37 125 110.74 125 107 125 C107 88.37 107 51.74 107 14 C103.37 23.9 99.74 33.8 96 44 C93.28930982 50.87353581 90.55681961 57.72906518 87.75 64.5625 C87.03138101 66.32335557 86.31329506 68.08442876 85.59570312 69.84570312 C84.13182675 73.43729262 82.66545469 77.02784725 81.19726562 80.61767578 C78.98941849 86.02027035 76.79744492 91.42921394 74.609375 96.83984375 C74.26001892 97.70348038 73.91066284 98.567117 73.55072021 99.45692444 C72.20494523 102.78403202 70.85936176 106.11121699 69.51403809 109.43850708 C68.60392257 111.68850196 67.69273439 113.93805938 66.78125 116.1875 C66.51229919 116.85309433 66.24334839 117.51868866 65.96624756 118.20445251 C65.03389744 120.50363249 64.11005038 122.77989923 63 125 C59.37 125 55.74 125 52 125 C43.57246493 103.30652593 35.17482674 81.60268905 27 59.8125 C26.70978973 59.0405127 26.41957947 58.26852539 26.12057495 57.47314453 C20.94495383 43.69556629 15.98589118 29.84969771 11 16 C11 51.97 11 87.94 11 125 C7.37 125 3.74 125 0 125 C0 83.75 0 42.5 0 0 Z "
        fill="#FFFFFF" transform="translate(618,1659)" />
    <path
        d="M0 0 C64.79545455 0 64.79545455 0 76.8125 11.75 C83.08707708 21.0722288 84.08127776 30.02001453 83 41 C81.41118163 48.22959364 77.89973315 53.54268658 72 58 C69.37663533 59.54829053 66.7986719 60.77251232 64 62 C64.60328125 62.37511719 65.2065625 62.75023437 65.828125 63.13671875 C74.47727009 68.67496166 78.44278702 73.98288273 81 84 C81.58089127 89.75128318 81.65345486 95.47346897 81.6875 101.25 C81.71677872 103.52938457 81.75149103 105.80858278 81.78999329 108.08782959 C81.82231814 110.14468757 81.84067275 112.20175138 81.8581543 114.25878906 C81.99753838 117.93507414 82.41235297 121.3749542 83 125 C79.37 125 75.74 125 72 125 C69.25297075 116.5391499 69.64326526 107.79029671 69.61914062 98.98681641 C69.61087694 84.59768725 69.61087694 84.59768725 62.5625 72.5 C55.37295549 68.29148614 48.24867389 67.85355032 40.1015625 67.68359375 C39.36059326 67.66494263 38.61962402 67.6462915 37.85620117 67.6270752 C35.11257808 67.55924993 32.36877661 67.49880128 29.625 67.4375 C23.47875 67.293125 17.3325 67.14875 11 67 C11 86.14 11 105.28 11 125 C7.37 125 3.74 125 0 125 C0 83.75 0 42.5 0 0 Z M11 10 C11 25.51 11 41.02 11 57 C20.343125 57.0928125 20.343125 57.0928125 29.875 57.1875 C31.82003418 57.21481201 33.76506836 57.24212402 35.76904297 57.27026367 C46.86174922 57.36130814 56.95748112 57.32013433 66 50 C70.64298763 45.22804049 72.05339337 40.1077587 72.3125 33.5625 C72.10909086 26.08721402 69.42909777 20.19305005 64 15 C58.59463062 11.97337993 53.10933382 9.86674261 46.87402344 9.88647461 C46.06239746 9.88659546 45.25077148 9.88671631 44.41455078 9.88684082 C43.57134277 9.89195679 42.72813477 9.89707275 41.859375 9.90234375 C41.0770752 9.90335083 40.29477539 9.90435791 39.48876953 9.90539551 C36.57583137 9.91061431 33.66291416 9.92457557 30.75 9.9375 C24.2325 9.958125 17.715 9.97875 11 10 Z "
        fill="#FFFFFF" transform="translate(1167,1659)" />
    <path
        d="M0 0 C11.23055975 10.53606058 18.44667347 25.15690943 19.3918457 40.64208984 C19.81482516 62.63365143 18.83510877 82.56946309 3.96484375 100.1796875 C-6.93107638 111.38849723 -20.81787548 116.38463474 -36.28515625 116.9921875 C-51.07570756 116.74530425 -64.18466561 112.29416663 -75.09765625 102.1796875 C-89.62418688 86.56661962 -93.63982067 66.77677778 -92.92138672 45.98681641 C-91.84546385 28.25915538 -85.1128903 12.04079177 -72.22265625 -0.37109375 C-51.37375784 -16.508943 -20.49332284 -16.61310042 0 0 Z M-68.03515625 10.8671875 C-79.46987385 24.6350495 -82.64373314 41.80202088 -81.5703125 59.23046875 C-79.55987043 74.91191691 -73.48282728 88.67857345 -61.3203125 98.984375 C-51.21511108 105.9910632 -39.79960169 108.0232495 -27.7890625 106.31640625 C-16.77564828 103.98196344 -7.07720372 98.21968256 -0.78515625 88.7421875 C8.71518419 71.83023395 11.21436433 51.98880642 6.58984375 33.1171875 C2.63050245 19.35043189 -4.3477676 9.04199213 -16.78515625 1.7421875 C-34.3039068 -5.8686441 -54.61096986 -3.16718918 -68.03515625 10.8671875 Z "
        fill="#F26522" transform="translate(217.78515625,1669.2578125)" />
    <path
        d="M0 0 C63.48497854 0 63.48497854 0 73.9375 9.8203125 C80.4270138 16.71542091 82.561451 23.56220602 82.4375 32.9375 C82.43137695 33.72729248 82.42525391 34.51708496 82.41894531 35.33081055 C82.25967687 41.26355995 81.34751913 45.99034464 78 51 C77.13375 52.36125 77.13375 52.36125 76.25 53.75 C72.46418519 57.53581481 68.07956856 60.30681048 63 62 C63.66386719 62.3403125 64.32773437 62.680625 65.01171875 63.03125 C72.70415856 67.25366951 76.27026576 71.24323084 79.25 79.4375 C80.8963435 87.25763161 81.10498547 94.90577366 81 102.875 C80.94523831 110.32383483 81.10226651 117.59369873 82 125 C78.37 125 74.74 125 71 125 C69.8675315 121.60259449 69.82455735 118.89405888 69.75390625 115.3125 C69.72091928 113.95963013 69.68770859 112.6067657 69.65429688 111.25390625 C69.60730893 109.13920507 69.56296103 107.02451759 69.52319336 104.90966797 C69.77689989 88.37884876 69.77689989 88.37884876 63 74 C56.09836652 68.22188825 47.7060541 67.71689134 39.02734375 67.5859375 C37.94990906 67.55947144 37.94990906 67.55947144 36.85070801 67.5324707 C34.21318351 67.47025375 31.57531267 67.42348456 28.9375 67.375 C20.0584375 67.189375 20.0584375 67.189375 11 67 C11 86.14 11 105.28 11 125 C7.37 125 3.74 125 0 125 C0 83.75 0 42.5 0 0 Z M11 10 C11 25.51 11 41.02 11 57 C20.343125 57.0928125 20.343125 57.0928125 29.875 57.1875 C31.82003418 57.21481201 33.76506836 57.24212402 35.76904297 57.27026367 C47.39565965 57.36731684 57.58071541 57.42670742 66.37109375 48.8671875 C71.3663635 43.14119484 71.54684318 37.53530214 71.34375 30.15625 C70.67351226 24.00224895 68.27893642 19.95609085 63.875 15.6875 C53.92670033 8.24559168 41.65531751 9.64708174 29.875 9.8125 C23.64625 9.874375 17.4175 9.93625 11 10 Z "
        fill="#F26522" transform="translate(426,1659)" />
    <path
        d="M0 0 C3.63 0 7.26 0 11 0 C11.33 20.46 11.66 40.92 12 62 C14.97 59.03 17.94 56.06 21 53 C22.94066011 51.30974764 24.88140973 49.61950959 26.8359375 47.9453125 C29.48975191 45.5597537 31.99498819 43.0392216 34.5 40.5 C37.49177114 37.46770369 40.49152038 34.49845672 43.75 31.75 C48.60705709 27.61548033 53.00647914 23.01798213 57.4909668 18.48950195 C61.32731367 14.63001261 65.18930975 10.8824075 69.40234375 7.4296875 C71.05578562 6.04240169 71.05578562 6.04240169 72.31640625 4.2578125 C73.8170223 2.31373082 74.83342977 1.18990767 77 0 C81.70853091 -0.5014691 86.28414868 -0.3488438 91 0 C89.64738766 3.10699073 88.24756433 4.87539092 85.625 7 C81.88180386 10.15789638 78.43266032 13.51456266 75 17 C71.17076863 20.8778829 67.27942495 24.56248879 63.125 28.09375 C59.75651073 31.11548302 56.61616699 34.36133006 53.43945312 37.58227539 C50.00989245 41.04187203 46.48421618 44.30574327 42.71875 47.40234375 C40.55323397 49.41528933 38.80351473 51.66254999 37 54 C38.16015625 55.34191406 38.16015625 55.34191406 39.34375 56.7109375 C44.65532142 62.87112847 49.89911916 69.05730472 54.94140625 75.44140625 C57.4081162 78.5072412 59.94872414 81.50449587 62.5 84.5 C66.38963054 89.06781574 70.17748273 93.69846382 73.90234375 98.40234375 C76.40439007 101.50078099 78.97933501 104.5316855 81.5625 107.5625 C94 122.19397071 94 122.19397071 94 125 C89.43526571 125.84908412 85.54669933 126.03896285 81 125 C77.05615404 121.69889295 74.20795511 117.92033828 71.24804688 113.73974609 C69.44727941 111.22952133 67.4767929 108.87285247 65.5 106.5 C64.77554688 105.60925781 64.05109375 104.71851563 63.3046875 103.80078125 C60.7796667 100.73223903 58.20503883 97.70970176 55.625 94.6875 C51.30876863 89.62258852 47.16502328 84.44361523 43.0793457 79.19165039 C38.52104342 73.34672389 33.78161818 67.66326145 29 62 C22.39172257 65.12530253 15.8236435 68.53061266 12 75 C9.70633875 83.27710873 10.4553994 92.18881884 10.6875 100.6875 C10.70451094 103.04618858 10.71563407 105.4049274 10.72070312 107.76367188 C10.74579256 113.51193746 10.85097978 119.25366601 11 125 C7.37 125 3.74 125 0 125 C0 83.75 0 42.5 0 0 Z "
        fill="#FFFFFF" transform="translate(918,1659)" />
    <path
        d="M0 0 C25.41 0 50.82 0 77 0 C77 3.3 77 6.6 77 10 C54.89 10 32.78 10 10 10 C10 24.52 10 39.04 10 54 C30.79 54 51.58 54 73 54 C73 57.3 73 60.6 73 64 C52.21 64 31.42 64 10 64 C10 80.83 10 97.66 10 115 C32.77 115 55.54 115 79 115 C78.67 118.3 78.34 121.6 78 125 C52.26 125 26.52 125 0 125 C0 83.75 0 42.5 0 0 Z "
        fill="#FFFFFF" transform="translate(1047,1659)" />
    <path
        d="M0 0 C4.29 0 8.58 0 13 0 C13.41024414 1.09086914 13.82048828 2.18173828 14.24316406 3.30566406 C24.07795574 29.44552867 34.0208771 55.54210986 44.06466675 81.60238647 C44.84568309 83.62897791 45.62638917 85.65568894 46.4067688 87.68252563 C48.53635386 93.2117391 50.67422047 98.73761417 52.82080078 104.26025391 C53.51641869 106.05527092 53.51641869 106.05527092 54.22608948 107.8865509 C55.12502664 110.20619421 56.02657524 112.52482758 56.93101501 114.84233093 C57.332845 115.88089737 57.73467499 116.91946381 58.14868164 117.98950195 C58.68580528 119.37079033 58.68580528 119.37079033 59.23377991 120.77998352 C60 123 60 123 60 125 C56.04 125 52.08 125 48 125 C42.72 111.14 37.44 97.28 32 83 C15.17 82.67 -1.66 82.34 -19 82 C-19.99 85.3 -20.98 88.6 -22 92 C-22.95012029 94.74371965 -23.9142883 97.47189344 -24.91796875 100.1953125 C-25.18007645 100.91363251 -25.44218414 101.63195251 -25.7122345 102.37203979 C-26.53464408 104.62401707 -27.36098768 106.87452572 -28.1875 109.125 C-28.7522165 110.66917454 -29.31667168 112.21344467 -29.88085938 113.7578125 C-31.25089728 117.50631675 -32.62446063 121.25351124 -34 125 C-37.63 125 -41.26 125 -45 125 C-43.66066558 118.32317929 -41.75924965 112.1263157 -39.38671875 105.75 C-39.02451736 104.76235153 -38.66231598 103.77470306 -38.28913879 102.75712585 C-37.09408852 99.50269903 -35.89089753 96.2513485 -34.6875 93 C-33.84717218 90.71738192 -33.00733749 88.43458225 -32.16796875 86.15161133 C-30.38644289 81.30905677 -28.60142115 76.46780997 -26.81396484 71.62744141 C-24.16810064 64.46169978 -21.53488869 57.29134439 -18.90369606 50.12020493 C-17.00230132 44.93911762 -15.09843683 39.75893723 -13.19479752 34.57867432 C-12.50230001 32.69376041 -11.81024318 30.80868516 -11.11825562 28.92358398 C-9.82035405 25.38974732 -8.51991657 21.85685433 -7.21875 18.32421875 C-6.83515823 17.27852219 -6.45156647 16.23282562 -6.05635071 15.15544128 C-4.1684426 10.03774424 -2.20859844 4.98810038 0 0 Z M6 13 C1.37035859 23.46640223 -2.39639151 34.23954928 -6.21313477 45.02148438 C-7.32280265 48.15408444 -8.43940846 51.2841533 -9.55664062 54.4140625 C-10.26343249 56.40349963 -10.96982753 58.3930778 -11.67578125 60.3828125 C-12.01007645 61.31916534 -12.34437164 62.25551819 -12.688797 63.22024536 C-12.99299057 64.08229584 -13.29718414 64.94434631 -13.6105957 65.83251953 C-13.87975296 66.59130402 -14.14891022 67.3500885 -14.42622375 68.13186646 C-15.09786748 69.99293211 -15.09786748 69.99293211 -15 72 C-0.81 72 13.38 72 28 72 C27.33642555 68.01855331 26.86672279 65.22872789 25.48120117 61.63793945 C25.02018257 60.43056877 25.02018257 60.43056877 24.54985046 59.19880676 C24.05144402 57.91897163 24.05144402 57.91897163 23.54296875 56.61328125 C23.19873367 55.71562546 22.8544986 54.81796967 22.49983215 53.89311218 C21.40101854 51.03083726 20.29453736 48.17160303 19.1875 45.3125 C18.09487524 42.47602198 17.00385019 39.63893294 15.91311646 36.80172729 C15.21427459 34.98403673 14.51480286 33.16658819 13.81466675 31.34939575 C11.47093863 25.25796126 9.18007579 19.15225547 7 13 C6.67 13 6.34 13 6 13 Z "
        fill="#FFFFFF" transform="translate(820,1659)" />
    <path
        d="M0 0 C3.63 0 7.26 0 11 0 C11.00586624 1.06773651 11.01173248 2.13547302 11.01777649 3.23556519 C11.07514046 13.32787088 11.14797305 23.41996393 11.23571491 33.51205254 C11.28032662 38.69975081 11.31960286 43.8873722 11.34643555 49.07519531 C11.37256048 54.08742194 11.41302739 59.09935129 11.46318626 64.11139297 C11.47979302 66.01777557 11.49134567 67.92420952 11.49761391 69.83065414 C11.54875653 83.96319271 11.94854056 97.92683442 22.62890625 108.6328125 C29.56495329 114.00784664 37.79389083 115.54727778 46.375 115.4375 C47.20281982 115.43065186 48.03063965 115.42380371 48.88354492 115.41674805 C57.078332 115.20267818 65.48495375 113.58966715 71.66015625 107.71875 C81.99663956 94.45912126 81.3077398 77.97204205 81.4140625 62.01171875 C81.43281443 60.2142502 81.45239069 58.41679008 81.4727478 56.61933899 C81.5236505 51.93255631 81.56349771 47.24574522 81.60089111 42.55883789 C81.64119616 37.75855729 81.69216633 32.95839057 81.7421875 28.15820312 C81.83844976 18.7722159 81.9230104 9.38616374 82 0 C85.3 0 88.6 0 92 0 C92.06976062 11.39687062 92.12294303 22.79368975 92.15543652 34.19073105 C92.17103815 39.48383928 92.19217511 44.77680054 92.22631836 50.06982422 C92.25910903 55.1856555 92.27689431 60.30134614 92.28463173 65.41727448 C92.29014005 67.36113954 92.30089569 69.30499761 92.31719017 71.24880219 C92.44333999 86.93284647 91.78105003 101.79028707 81.03125 114.2890625 C71.19533224 123.80424381 59.4899502 126.17939076 46.3125 126.25 C44.89807617 126.2809375 44.89807617 126.2809375 43.45507812 126.3125 C31.44229748 126.37854965 20.73375141 122.59697473 11.8125 114.4375 C2.69513672 104.79238515 -0.34305003 92.71180406 -0.22705078 79.80834961 C-0.22734283 78.93896759 -0.22763489 78.06958557 -0.22793579 77.17385864 C-0.22655529 74.33324801 -0.21105508 71.4929079 -0.1953125 68.65234375 C-0.19157781 66.66980635 -0.18873299 64.68726709 -0.18673706 62.70472717 C-0.17913651 57.51143205 -0.15951906 52.31825054 -0.1373291 47.125 C-0.11679325 41.81577084 -0.10771885 36.50652314 -0.09765625 31.19726562 C-0.07626955 20.79812744 -0.04217721 10.3990732 0 0 Z "
        fill="#F26522" transform="translate(282,1659)" />
    <path
        d="M0 0 C4.24916165 -0.82858652 7.76932191 -1.00581222 12 0 C14.09912109 2.43530273 14.09912109 2.43530273 15.8984375 5.68359375 C16.39632278 6.55680771 16.39632278 6.55680771 16.90426636 7.44766235 C17.60308053 8.67554317 18.29277374 9.90865495 18.97375488 11.14651489 C20.59135337 14.068034 22.30683882 16.93113564 24.0078125 19.8046875 C24.68605531 20.96592372 25.36320655 22.12779813 26.03930664 23.2902832 C34.18888053 37.30032229 42.50941906 51.19336406 51 65 C51.64678711 63.8864917 51.64678711 63.8864917 52.30664062 62.75048828 C62.07587173 45.95349721 71.9636059 29.24697786 82.30371094 12.79296875 C83.44389526 10.91563591 84.53042175 9.0047552 85.56347656 7.06640625 C89.26234345 0.2243481 89.26234345 0.2243481 93.2109375 -0.9765625 C94.77714844 -0.80253906 94.77714844 -0.80253906 96.375 -0.625 C97.43460937 -0.53476563 98.49421875 -0.44453125 99.5859375 -0.3515625 C100.38257812 -0.23554687 101.17921875 -0.11953125 102 0 C100.39449017 4.46451931 98.10747748 8.44057567 95.6875 12.5 C95.24873535 13.24064697 94.8099707 13.98129395 94.35791016 14.74438477 C89.30278949 23.23624746 84.07390518 31.62050512 78.85498047 40.01220703 C75.7266652 45.05094385 72.61242771 50.09833076 69.50177002 55.14797974 C68.46225229 56.83483378 67.4213287 58.52082123 66.38037109 60.20678711 C65.73793457 61.24971924 65.09549805 62.29265137 64.43359375 63.3671875 C63.86697021 64.28612793 63.30034668 65.20506836 62.71655273 66.15185547 C62.15009033 67.09174316 61.58362793 68.03163086 61 69 C60.28175049 70.03600342 59.56350098 71.07200684 58.82348633 72.1394043 C56.10462327 76.95593092 56.39703484 81.99913918 56.390625 87.40234375 C56.37408875 88.48004532 56.35755249 89.55774689 56.34051514 90.66810608 C56.29214794 94.09129603 56.27068845 97.51404204 56.25 100.9375 C56.22183101 103.26629824 56.19190229 105.5950759 56.16015625 107.92382812 C56.08639144 113.61584887 56.03674748 119.30762478 56 125 C52.37 125 48.74 125 45 125 C45.0220752 123.6402002 45.04415039 122.28040039 45.06689453 120.87939453 C45.13657444 115.74615514 45.13860372 110.61458159 45.12207031 105.48095703 C45.12399538 103.27579034 45.1433244 101.07055727 45.18164062 98.86572266 C45.42729796 83.86015361 43.79198711 73.34957718 35.25646973 60.85357666 C33.50981 58.27685903 31.96793713 55.59242311 30.41015625 52.8984375 C29.29696066 51.0556641 28.18104125 49.21453356 27.0625 47.375 C25.79108693 45.26727668 24.52028731 43.15918324 23.25 41.05078125 C22.57710937 39.93525879 21.90421875 38.81973633 21.2109375 37.67041016 C17.41307774 31.36904299 13.63144625 25.05803017 9.86251831 18.73931885 C8.99776589 17.29133203 8.13133749 15.84434478 7.26321411 14.39837646 C6.04768809 12.37346453 4.83767036 10.34535981 3.62890625 8.31640625 C3.26091919 7.70613083 2.89293213 7.09585541 2.51379395 6.46708679 C0 2.22808565 0 2.22808565 0 0 Z "
        fill="#F26522" transform="translate(0,1659)" />
</svg>