<svg width="1260" height="1553" viewBox="0 0 1260 1553" fill="none" xmlns="http://www.w3.org/2000/svg">
<path d="M149.37 32.8966L149.363 32.8844C144.787 24.8338 139.971 16.9614 135.01 9H134.985H134.706H134.428H134.15H133.872H133.594H133.315H133.037H132.759H132.481H132.203H131.925H131.647H131.369H131.091H130.813H130.535H130.257H129.98H129.702H129.424H129.146H128.869H128.591H128.313H128.036H127.758H127.481H127.203H126.926H126.648H126.371H126.093H125.816H125.539H125.261H124.984H124.707H124.43H124.152H123.875H123.598H123.321H123.044H122.767H122.49H122.213H121.936H121.659H121.382H121.105H120.828H120.551H120.275H119.998H119.721H119.444H119.168H118.891H118.614H118.338H118.061H117.785H117.508H117.232H116.955H116.679H116.402H116.126H115.85H115.573H115.297H115.021H114.744H114.468H114.192H113.916H113.64H113.363H113.087H112.811H112.535H112.259H111.983H111.707H111.431H111.155H110.879H110.604H110.328H110.052H109.776H109.5H109.225H108.949H108.673H108.397H108.122H107.846H107.571H107.295H107.019H106.744H106.468H106.193H105.918H105.642H105.367H105.091H104.816H104.541H104.265H103.99H103.715H103.44H103.164H102.889H102.614H102.339H102.064H101.789H101.514H101.239H100.964H100.689H100.414H100.139H99.8637H99.5887H99.3139H99.039H98.7642H98.4893H98.2146H97.9398H97.665H97.3903H97.1156H96.8409H96.5663H96.2916H96.017H95.7424H95.4679H95.1933H94.9188H94.6443H94.3698H94.0953H93.8209H93.5465H93.2721H92.9977H92.7234H92.449H92.1747H91.9004H91.6262H91.3519H91.0777H90.8035H90.5293H90.2551H89.981H89.7069H89.4328H89.1587H88.8846H88.6106H88.3366H88.0626H87.7886H87.5147H87.2407H86.9668H86.6929H86.419H86.1452H85.8713H85.5975H85.3237H85.0499H84.7762H84.5024H84.2287H83.955H83.6813H83.4077H83.134H82.8604H82.5868H82.3132H82.0396H81.7661H81.4926H81.2191H80.9456H80.6721H80.3986H80.1252H79.8518H79.5784H79.305H79.0316H78.7583H78.485H78.2117H77.9384H77.6651H77.3919H77.1186H76.8454H76.5722H76.299H76.0259H75.7527H75.4796H75.2065H74.9334H74.6603H74.3872H74.1142H73.8412H73.5681H73.2952H73.0222H72.7492H72.4763H72.2034H71.9304H71.6575H71.3847H71.1118H70.839H70.5661H70.2933H70.0205H69.7478H69.475H69.2023H68.9295H68.6568H68.3841H68.1114H67.8388H67.5661H67.2935H67.0209H66.7483H66.4757H66.2031H65.9305H65.658H65.3855H65.1129H64.8404H64.568H64.2955H64.023H63.7506H63.4782H63.2058H62.9334H62.661H62.3886H62.1163H61.8439H61.5716H61.2993H61.027H60.7547H60.4825H60.2102H59.938H59.6658H59.3935H59.1213H58.8492H58.577H58.3048H58.0327H57.7606H57.4884H57.2163H56.9443H56.6722H56.4001H56.1281H55.856H55.584H55.312H55.04H54.768H54.496H54.2241H53.9521H53.6802H53.4083H53.1364H52.8645H52.5926H52.3207H52.0488H51.777H51.5051H51.2333H50.9615H50.6897H50.4179H50.1461H49.8744H49.6026H49.3309H49.0591H48.7874H48.5157H48.244H47.9723H47.7006H47.429H47.1573H46.8857H46.614H46.3424H46.0708H45.7992H45.5276H45.256H44.9844H44.7129H44.4413H44.1698H43.8983H43.6267H43.3552H43.0837H42.8122H42.5408H42.2693H41.9978H41.7264H41.4549H41.1835H40.9121H40.6407H40.3693H40.0979H39.8265H39.5551H39.2838H39.0124H38.7411H38.4697H38.1984H37.9271H37.6557H37.3844H37.1132H36.8419H36.5706H36.2993H36.0281H35.7568H35.4856H35.2143H34.9431H34.6719H34.4007H34.1295H33.8583H33.5871H33.3159H33.0447H32.7736H32.5024H32.2313H31.9601H31.689H31.4178H31.1467H30.8756H30.6045H30.3334H30.0623H29.7912H29.5201H29.2491H28.978H28.707H28.4359H28.1649H27.8938H27.6228H27.3518H27.0807H26.8097H26.5387H26.2677H25.9967H25.7257H25.4548H25.1838H24.9128H24.6418H24.3709H24.0999H23.829H23.558H23.2871H23.0162H22.7452H22.4743H22.2034H21.9325H21.6616H21.3907H21.1198H20.8489H20.578H20.3071H20.0363H19.7654H19.4945H19.2237H18.9528H18.6819H18.4111H18.1402H17.8694H17.5986H17.3277H17.0569H16.7861H16.5153H16.2444H15.9736H15.7028H15.432H15.1612H14.8904H14.6196H14.3488H14.078H13.8072H13.5365H13.2657H12.9949H12.7241H12.4534H12.1826H11.9118H11.6411H11.3703H11.0995H10.8288H10.558H10.2873H10.0165H9.7458H9.47506H9.20432H9V9.28001V12.3726V15.4649V18.5568V21.6484V24.7396V27.8305V30.921V34.0112V37.101V40.1905V43.2796V46.3684V49.4569V52.5449V55.6327V58.7201V61.8072V64.8939V67.9803V71.0663V74.152V77.2374V80.3224V83.4071V86.4915V89.5755V92.6592V95.7425V98.8256V101.908V104.991V108.073V111.154V114.236V117.317V120.397V123.478V126.558V129.637V132.717V135.796V138.875V141.953V145.031V148.109V151.186V154.264V157.34V160.417V163.493V166.569V169.644V172.72V175.794V178.869V181.943V185.017V188.091V191.164V194.237V197.31V200.382V203.454V206.526V209.598V212.669V215.74V218.81V221.88V224.95V228.02V231.089V234.158V237.227V240.295V243.363V246.431V249.499V252.566V255.633V258.699V261.766V264.832V267.897V270.963V274.028V277.093V280.157V283.222V286.286V289.349V292.413V295.476V298.538V301.601V304.663V307.725V310.787V313.848V316.909V319.97V323.031V326.091V329.151V332.21V335.27V338.329V341.388V344.446V347.505V350.563V353.62V356.678V359.735V362.792V365.848V368.905V371.961V375.017V378.072V381.127V384.182V387.237V390.292V393.346V396.4V399.453V402.507V405.56V408.613V411.665V414.718V417.77V420.822V423.873V426.924V429.975V433.026V436.077V439.127V442.177V445.227V448.276V451.326V454.375V457.423V460.472V463.52V466.568V469.616V472.663V475.71V478.757V481.804V484.851V487.897V490.943V493.989V497.034V500.079V503.124V506.169V509.214V512.258V515.302V518.346V521.39V524.433V527.476V530.519V533.562V536.604V539.646V542.688V545.73V548.771V551.813V554.854V557.894V560.935V563.975V567.015V570.055V573.095V576.134V579.174V582.212V585.251V588.29V591.328V594.366V597.404V600.442V603.479V606.516V609.553V612.59V615.627V618.663V621.699V624.735V627.771V630.806V633.841V636.876V639.911V642.946V645.98V649.015V652.049V655.082V658.116V661.149V664.183V667.216V670.248V673.281V676.313V679.345V682.377V685.409V688.441V691.472V694.503V697.534V700.565V703.596V706.626V709.656V712.686V715.716V718.745V721.775V724.804V727.833V730.862V733.891V736.919V739.947V742.975V746.003V749.031V752.059V755.086V758.113V761.14V764.167V767.193V770.22V773.246V776.272V779.298V782.324V785.349V788.375V791.4V794.425V797.45V800.474V803.499V806.523V809.547V812.571V815.595V818.619V821.642V824.665V827.688V830.711V833.734V836.757V839.779V842.802V845.824V848.846V851.867V854.889V857.911V860.932V863.953V866.974V869.995V873.016V876.036V879.056V882.077V885.097V888.117V891.136V894.156V897.175V900.195V903.214V906.233V909.252V912.27V915.289V918.307V921.326V924.344V927.362V930.379V933.397V936.415V939.432V942.449V945.466V948.483V951.5V954.517V957.533V960.55V963.566V966.582V969.598V972.614V975.63V978.645V981.661V984.676V987.691V990.706V993.721V996.736V999.751V1002.77V1005.78V1008.79V1011.81V1014.82V1017.84V1020.85V1023.86V1026.88V1029.89V1032.9V1035.92V1038.93V1041.94V1044.96V1047.97V1050.98V1053.99V1057.01V1060.02V1063.03V1066.04V1069.05V1072.07V1075.08V1078.09V1081.1V1084.11V1087.12V1090.14V1093.15V1096.16V1099.17V1102.18V1105.19V1108.2V1111.21V1114.22V1117.23V1120.24V1123.25V1126.26V1129.27V1132.28V1135.29V1138.3V1141.31V1144.32V1147.33V1150.34V1153.35V1156.35V1159.36V1162.37V1165.38V1168.39V1171.4V1174.41V1177.42V1180.42V1183.43V1186.44V1189.45V1192.46V1195.46V1198.47V1201.48V1204.49V1207.49V1210.5V1213.51V1216.52V1219.52V1222.53V1225.54V1228.54V1231.55V1234.56V1237.56V1240.57V1243.58V1246.58V1249.59V1252.6V1255.6V1258.61V1261.62V1264.62V1267.63V1270.63V1273.64V1276.65V1279.65V1282.66V1285.66V1288.67V1291.67V1294.68V1297.68V1300.69V1303.7V1306.7V1309.71V1312.71V1315.72V1318.72V1321.73V1324.73V1327.74V1330.74V1333.75V1336.75V1339.75V1342.76V1345.76V1348.77V1351.77V1354.78V1357.78V1360.79V1363.79V1366.79V1369.8V1372.8V1375.81V1378.81V1381.81V1384.82V1387.82V1390.83V1393.83V1396.83V1399.84V1402.84V1405.85V1408.85V1411.85V1414.86V1417.86V1420.86V1423.87V1426.87V1429.87V1432.88V1435.88V1438.88V1441.89V1444.89V1447.89V1450.9V1453.9V1456.9V1459.91V1462.91V1465.91V1468.92V1471.92V1474.92V1477.93V1480.93V1483.93V1486.94V1489.94V1492.94V1495.94V1498.95V1501.95V1504.95V1507.96V1510.96V1513.96V1516.97V1519.97V1522.97V1525.97V1528.98V1531.98V1534.98V1537.99V1540.99V1543.99V1544H9.18683H9.4647H9.74254H10.0203H10.2981H10.5759H10.8536H11.1313H11.4089H11.6866H11.9642H12.2417H12.5193H12.7968H13.0743H13.3517H13.6292H13.9066H14.1839H14.4613H14.7386H15.0159H15.2931H15.5703H15.8475H16.1247H16.4018H16.6789H16.956H17.2331H17.5101H17.7871H18.0641H18.341H18.6179H18.8948H19.1717H19.4485H19.7253H20.0021H20.2788H20.5556H20.8322H21.1089H21.3855H21.6622H21.9387H22.2153H22.4918H22.7683H23.0448H23.3213H23.5977H23.8741H24.1504H24.4268H24.7031H24.9794H25.2557H25.5319H25.8081H26.0843H26.3604H26.6366H26.9127H27.1888H27.4648H27.7408H28.0168H28.2928H28.5688H28.8447H29.1206H29.3965H29.6723H29.9481H30.2239H30.4997H30.7755H31.0512H31.3269H31.6025H31.8782H32.1538H32.4294H32.705H32.9805H33.2561H33.5316H33.807H34.0825H34.3579H34.6333H34.9087H35.184H35.4594H35.7347H36.01H36.2852H36.5605H36.8357H37.1108H37.386H37.6611H37.9363H38.2114H38.4864H38.7615H39.0365H39.3115H39.5865H39.8614H40.1363H40.4113H40.6861H40.961H41.2358H41.5107H41.7854H42.0602H42.335H42.6097H42.8844H43.1591H43.4337H43.7084H43.983H44.2576H44.5321H44.8067H45.0812H45.3557H45.6302H45.9047H46.1791H46.4535H46.7279H47.0023H47.2766H47.551H47.8253H48.0996H48.3738H48.6481H48.9223H49.1965H49.4707H49.7449H50.019H50.2931H50.5672H50.8413H51.1154H51.3894H51.6634H51.9374H52.2114H52.4853H52.7593H53.0332H53.3071H53.581H53.8548H54.1287H54.4025H54.6763H54.9501H55.2238H55.4976H55.7713H56.045H56.3187H56.5923H56.866H57.1396H57.4132H57.6868H57.9604H58.2339H58.5074H58.7809H59.0544H59.3279H59.6014H59.8748H60.1482H60.4216H60.695H60.9684H61.2417H61.515H61.7883H62.0616H62.3349H62.6081H62.8814H63.1546H63.4278H63.701H63.9741H64.2473H64.5204H64.7935H65.0666H65.3397H65.6128H65.8858H66.1588H66.4319H66.7048H66.9778H67.2508H67.5237H67.7966H68.0696H68.3425H68.6153H68.8882H69.161H69.4339H69.7067H69.9795H70.2522H70.525H70.7977H71.0705H71.3432H71.6159H71.8886H72.1612H72.4339H72.7065H72.9791H73.2517H73.5243H73.7969H74.0695H74.342H74.6145H74.8871H75.1596H75.432H75.7045H75.977H76.2494H76.5218H76.7942H77.0666H77.339H77.6114H77.8837H78.1561H78.4284H78.7007H78.973H79.2453H79.5175H79.7898H80.062H80.3342H80.6065H80.8787H81.1508H81.423H81.6952H81.9673H82.2394H82.5116H82.7837H83.0557H83.3278H83.5999H83.8719H84.144H84.416H84.688H84.96H85.232H85.504H85.7759H86.0479H86.3198H86.5917H86.8636H87.1355H87.4074H87.6793H87.9512H88.223H88.4949H88.7667H89.0385H89.3103H89.5821H89.8539H90.1256H90.3974H90.6692H90.9409H91.2126H91.4843H91.756H92.0277H92.2994H92.5711H92.8427H93.1143H93.386H93.6576H93.9292H94.2008H94.4724H94.744H95.0156H95.2871H95.5587H95.8302H96.1017H96.3733H96.6448H96.9163H97.1878H97.4592H97.7307H98.0022H98.2736H98.5451H98.8165H99.0879H99.3593H99.6307H99.9021H100.174H100.445H100.716H100.988H101.259H101.53H101.802H102.073H102.344H102.616H102.887H103.158H103.429H103.701H103.972H104.243H104.514H104.786H105.057H105.328H105.599H105.871H106.142H106.413H106.684H106.955H107.226H107.498H107.769H108.04H108.311H108.582H108.853H109.124H109.395H109.667H109.938H110.209H110.48H110.751H111.022H111.293H111.564H111.835H112.106H112.377H112.648H112.919H113.19H113.461H113.732H114.003H114.274H114.545H114.816H115.087H115.358H115.629H115.9H116.171H116.442H116.713H116.984H117.255H117.526H117.797H118.068H118.338H118.609H118.88H119.151H119.422H119.693H119.964H120.235H120.505H120.776H121.047H121.318H121.589H121.86H122.131H122.401H122.672H122.943H123.214H123.485H123.756H124.026H124.297H124.568H124.839H125.11H125.38H125.651H125.922H126.193H126.464H126.734H127.005H127.276H127.547H127.817H128.088H128.359H128.63H128.9H129.171H129.442H129.713H129.983H130.254H130.525H130.796H131.007L132 239.993L132.025 207.256L148.739 235.405C150.334 238.092 151.929 240.779 153.525 243.466C160.127 254.585 166.731 265.706 173.33 276.83L165.59 281.422L173.33 276.83L175.556 280.582L175.557 280.583L177.678 284.158L177.678 284.158C182.334 292.007 186.985 299.829 191.682 307.616C195.533 313.998 199.351 320.44 203.06 326.986L203.062 326.99C207.803 335.37 212.664 343.655 217.673 351.868C223.806 361.915 229.908 372 235.926 382.151L235.927 382.153L237.117 384.161C237.117 384.161 237.117 384.162 237.118 384.162C239.122 387.544 241.127 390.928 243.131 394.313L235.386 398.897L243.131 394.313C246.703 400.347 250.284 406.379 253.867 412.413C255.218 414.686 256.568 416.96 257.918 419.233L259.801 422.405L262.176 426.405L263.364 428.405L274.645 447.405L285.926 466.405L287.114 468.405L289.489 472.405L295.423 482.4C299.003 488.429 302.582 494.457 306.162 500.485C314.359 514.288 322.558 528.096 330.743 541.913L330.744 541.914C334.551 548.342 338.356 554.764 342.171 561.179C343.768 563.865 345.365 566.551 346.961 569.237L339.225 573.836L346.961 569.237L348.173 571.276C348.174 571.276 348.174 571.276 348.174 571.276C353.576 580.362 358.956 589.47 364.294 598.61L364.294 598.61L365.35 600.419L366.397 602.212C372.368 612.438 378.465 622.598 384.63 632.747C385.002 632.129 385.374 631.512 385.744 630.894C386.487 629.655 387.231 628.416 387.978 627.179L387.98 627.174C391.928 620.636 395.856 614.083 399.791 607.515L400.948 605.585L408.668 610.211L400.948 605.585L403.456 601.399C404.147 600.245 404.838 599.092 405.529 597.938C410.068 590.352 414.656 582.72 419.382 575.146L419.385 575.14C424.799 566.478 430.079 557.732 435.271 548.907L436.43 546.937L436.434 546.93L436.438 546.923C437.55 545.041 438.654 543.17 439.752 541.297L440.775 539.548L440.78 539.54C440.915 539.309 441.048 539.084 441.177 538.863C442.467 536.668 443.473 534.956 444.231 533.366C444.117 533.172 443.95 532.897 443.667 532.435C442.724 530.979 441.801 529.517 440.895 528.051L440.891 528.045L439.469 525.738C439.462 525.728 439.456 525.717 439.449 525.707C436.8 521.48 434.248 517.23 431.749 512.984L431.746 512.979C430.689 511.179 429.628 509.38 428.566 507.582C423.93 499.742 419.326 491.889 414.734 484.048C410.263 476.414 405.797 468.796 401.303 461.199C396.206 452.589 391.126 443.967 386.066 435.333L386.066 435.332L384.985 433.488C382.435 429.136 379.886 424.785 377.338 420.433C374.413 415.44 371.49 410.447 368.565 405.455L367.485 403.613L375.25 399.062L367.485 403.612C362.588 395.256 357.683 386.912 352.755 378.584C348.093 370.708 343.457 362.82 338.836 354.931L338.836 354.931C331.34 342.131 323.812 329.35 316.255 316.585C309.056 304.424 301.879 292.247 294.734 280.049L294.734 280.048C289.753 271.543 284.768 263.053 279.755 254.584C275.093 246.709 270.458 238.822 265.837 230.933L265.837 230.932C260.487 221.797 255.138 212.679 249.756 203.585C244.634 194.935 239.551 186.268 234.483 177.609L234.483 177.609C233.914 176.638 233.348 175.669 232.783 174.702C229.768 169.546 226.787 164.447 223.74 159.384C219.745 152.782 215.838 146.146 211.998 139.464L211.997 139.461C206.925 130.63 201.862 121.877 196.652 113.227L149.37 32.8966ZM149.37 32.8966L149.377 32.9086M149.37 32.8966L149.377 32.9086M149.377 32.9086C154.415 41.7099 159.543 50.4576 164.796 59.152C170.497 68.5947 176.054 78.1323 181.568 87.7468L181.572 87.7549M149.377 32.9086L181.572 87.7549M181.572 87.7549C186.507 96.3396 191.573 104.814 196.652 113.227L181.572 87.7549Z" stroke="white" stroke-width="18"/>
<mask id="path-2-inside-1_0_1" fill="white">
<path d="M1137 0C1137.33 0 1137.66 0 1138 0C1138.28 28.2256 1138.49 56.451 1138.62 84.6777C1138.68 97.7856 1138.77 110.892 1138.91 124C1139.03 135.431 1139.1 146.862 1139.13 158.294C1139.14 164.341 1139.18 170.387 1139.27 176.433C1139.35 182.139 1139.38 187.843 1139.36 193.549C1139.36 195.629 1139.38 197.71 1139.43 199.79C1139.75 214.804 1136.41 224.063 1127.4 236.095C1125.54 238.624 1123.93 241.274 1122.33 243.973C1121.82 244.815 1121.31 245.657 1120.78 246.525C1120.28 247.362 1119.77 248.2 1119.25 249.062C1114.24 257.33 1109.2 265.58 1104.13 273.812C1103.46 274.896 1102.79 275.98 1102.1 277.096C1100.75 279.298 1099.39 281.5 1098.03 283.702C1094.69 289.133 1091.34 294.567 1088 300C1083.98 306.536 1079.96 313.072 1075.93 319.605C1068.95 330.94 1061.99 342.29 1055.08 353.669C1050.72 360.833 1046.32 367.964 1041.89 375.087C1037.89 381.537 1033.94 388.013 1030 394.5C1025.05 402.651 1020.06 410.775 1015.03 418.879C1005.56 434.151 996.143 449.454 986.813 464.812C981.924 472.859 976.995 480.879 972.032 488.881C961.974 505.098 951.985 521.357 942.078 537.667C937.722 544.832 933.316 551.964 928.894 559.087C924.894 565.537 920.939 572.013 917 578.5C912.05 586.651 907.059 594.775 902.033 602.879C891.975 619.097 881.986 635.357 872.078 651.667C867.722 658.832 863.316 665.964 858.894 673.087C854.894 679.537 850.939 686.013 847 692.5C842.05 700.651 837.059 708.775 832.033 716.879C822.562 732.151 813.143 747.454 803.813 762.812C798.924 770.859 793.995 778.879 789.032 786.881C779.561 802.152 770.143 817.455 760.813 832.812C755.924 840.859 750.995 848.879 746.032 856.881C735.98 873.09 725.993 889.34 716.094 905.643C712.675 911.267 709.229 916.873 705.754 922.463C704.114 925.104 702.482 927.751 700.852 930.398C699.191 933.093 697.509 935.767 695.774 938.414C686.145 953.614 686.418 969.942 686.481 987.323C686.475 989.77 686.468 992.218 686.458 994.665C686.442 999.963 686.439 1005.26 686.446 1010.56C686.457 1018.44 686.444 1026.31 686.427 1034.19C686.4 1047.45 686.391 1060.7 686.392 1073.96C686.393 1087.07 686.386 1100.19 686.368 1113.31C686.367 1114.12 686.366 1114.94 686.365 1115.78C686.359 1119.93 686.353 1124.08 686.348 1128.23C686.306 1157.58 686.283 1186.93 686.271 1216.28C686.259 1244.79 686.239 1273.3 686.208 1301.8C686.206 1303.12 686.206 1303.12 686.205 1304.47C686.195 1313.3 686.185 1322.13 686.175 1330.96C686.155 1348.95 686.135 1366.94 686.117 1384.93C686.115 1386.17 686.115 1386.17 686.114 1387.44C686.088 1412.78 686.067 1438.12 686.05 1463.46C686.049 1464.17 686.049 1464.89 686.049 1465.63C686.029 1494.76 686.015 1523.88 686 1553C645.41 1553 604.82 1553 563 1553C562.582 1483.87 562.582 1483.87 562.463 1462.47C562.459 1461.7 562.454 1460.94 562.45 1460.15C562.307 1434.44 562.185 1408.73 562.079 1383.02C562.075 1382.18 562.072 1381.34 562.068 1380.48C561.993 1362.23 561.921 1343.98 561.852 1325.73C561.818 1316.78 561.784 1307.83 561.749 1298.88C561.745 1297.99 561.742 1297.1 561.738 1296.18C561.626 1267.35 561.465 1238.52 561.278 1209.69C561.087 1180.05 560.945 1150.4 560.865 1120.76C560.853 1116.57 560.841 1112.37 560.829 1108.18C560.827 1107.35 560.824 1106.53 560.822 1105.68C560.782 1092.43 560.69 1079.18 560.579 1065.93C560.467 1052.59 560.412 1039.25 560.411 1025.91C560.41 1018.69 560.384 1011.47 560.289 1004.25C559.595 949.584 559.595 949.584 575.278 932C577.748 929.131 579.427 926.079 581.219 922.75C581.77 921.786 582.321 920.823 582.889 919.83C583.42 918.896 583.952 917.962 584.5 917C589.405 908.441 594.401 899.945 599.5 891.5C605.292 881.904 610.938 872.232 616.52 862.513C620.943 854.816 625.428 847.159 629.955 839.523C634.409 832.008 638.834 824.475 643.25 816.938C643.973 815.704 644.696 814.47 645.419 813.236C648.333 808.262 651.247 803.287 654.159 798.312C664.032 781.444 673.951 764.605 683.931 747.8C685.419 745.295 686.906 742.79 688.393 740.284C692.381 733.565 696.371 726.847 700.361 720.128C703.557 714.747 706.752 709.365 709.947 703.984C711.921 700.659 713.895 697.334 715.87 694.01C719.455 687.974 723.038 681.938 726.614 675.897C734.851 661.983 743.126 648.096 751.543 634.29C757.265 624.901 762.9 615.462 768.5 606C774.781 595.389 781.123 584.819 787.542 574.291C793.265 564.902 798.899 555.463 804.5 546C810.781 535.389 817.123 524.819 823.542 514.291C829.265 504.902 834.899 495.462 840.5 486C848.542 472.417 856.696 458.905 864.912 445.427C868.425 439.662 871.932 433.894 875.438 428.125C875.787 427.55 876.136 426.976 876.496 426.384C882.029 417.275 887.523 408.143 893 399C900.913 385.791 908.889 372.622 916.891 359.468C920.076 354.231 923.256 348.991 926.437 343.752C928.208 340.835 929.979 337.917 931.75 335C932.458 333.833 933.167 332.667 933.875 331.5C989.125 240.5 989.125 240.5 990.188 238.75C990.896 237.583 991.604 236.416 992.313 235.25C994.083 232.335 995.853 229.419 997.623 226.504C1000.82 221.237 1004.02 215.969 1007.21 210.699C1015.09 197.7 1023 184.725 1030.98 171.789C1035.85 163.879 1040.69 155.945 1045.5 148C1053.6 134.628 1061.79 121.309 1070 108C1072.71 103.605 1075.42 99.209 1078.13 94.8125C1078.79 93.7336 1079.45 92.6546 1080.14 91.543C1084.47 84.5018 1088.77 77.4431 1093.06 70.375C1098.43 61.5375 1103.88 52.7617 1109.38 44.0063C1113.8 36.9591 1118.13 29.8659 1122.44 22.75C1132.87 5.5339 1132.87 5.5339 1137 0Z"/>
</mask>
<path d="M1137 0C1137.33 0 1137.66 0 1138 0C1138.28 28.2256 1138.49 56.451 1138.62 84.6777C1138.68 97.7856 1138.77 110.892 1138.91 124C1139.03 135.431 1139.1 146.862 1139.13 158.294C1139.14 164.341 1139.18 170.387 1139.27 176.433C1139.35 182.139 1139.38 187.843 1139.36 193.549C1139.36 195.629 1139.38 197.71 1139.43 199.79C1139.75 214.804 1136.41 224.063 1127.4 236.095C1125.54 238.624 1123.93 241.274 1122.33 243.973C1121.82 244.815 1121.31 245.657 1120.78 246.525C1120.28 247.362 1119.77 248.2 1119.25 249.062C1114.24 257.33 1109.2 265.58 1104.13 273.812C1103.46 274.896 1102.79 275.98 1102.1 277.096C1100.75 279.298 1099.39 281.5 1098.03 283.702C1094.69 289.133 1091.34 294.567 1088 300C1083.98 306.536 1079.96 313.072 1075.93 319.605C1068.95 330.94 1061.99 342.29 1055.08 353.669C1050.72 360.833 1046.32 367.964 1041.89 375.087C1037.89 381.537 1033.94 388.013 1030 394.5C1025.05 402.651 1020.06 410.775 1015.03 418.879C1005.56 434.151 996.143 449.454 986.813 464.812C981.924 472.859 976.995 480.879 972.032 488.881C961.974 505.098 951.985 521.357 942.078 537.667C937.722 544.832 933.316 551.964 928.894 559.087C924.894 565.537 920.939 572.013 917 578.5C912.05 586.651 907.059 594.775 902.033 602.879C891.975 619.097 881.986 635.357 872.078 651.667C867.722 658.832 863.316 665.964 858.894 673.087C854.894 679.537 850.939 686.013 847 692.5C842.05 700.651 837.059 708.775 832.033 716.879C822.562 732.151 813.143 747.454 803.813 762.812C798.924 770.859 793.995 778.879 789.032 786.881C779.561 802.152 770.143 817.455 760.813 832.812C755.924 840.859 750.995 848.879 746.032 856.881C735.98 873.09 725.993 889.34 716.094 905.643C712.675 911.267 709.229 916.873 705.754 922.463C704.114 925.104 702.482 927.751 700.852 930.398C699.191 933.093 697.509 935.767 695.774 938.414C686.145 953.614 686.418 969.942 686.481 987.323C686.475 989.77 686.468 992.218 686.458 994.665C686.442 999.963 686.439 1005.26 686.446 1010.56C686.457 1018.44 686.444 1026.31 686.427 1034.19C686.4 1047.45 686.391 1060.7 686.392 1073.96C686.393 1087.07 686.386 1100.19 686.368 1113.31C686.367 1114.12 686.366 1114.94 686.365 1115.78C686.359 1119.93 686.353 1124.08 686.348 1128.23C686.306 1157.58 686.283 1186.93 686.271 1216.28C686.259 1244.79 686.239 1273.3 686.208 1301.8C686.206 1303.12 686.206 1303.12 686.205 1304.47C686.195 1313.3 686.185 1322.13 686.175 1330.96C686.155 1348.95 686.135 1366.94 686.117 1384.93C686.115 1386.17 686.115 1386.17 686.114 1387.44C686.088 1412.78 686.067 1438.12 686.05 1463.46C686.049 1464.17 686.049 1464.89 686.049 1465.63C686.029 1494.76 686.015 1523.88 686 1553C645.41 1553 604.82 1553 563 1553C562.582 1483.87 562.582 1483.87 562.463 1462.47C562.459 1461.7 562.454 1460.94 562.45 1460.15C562.307 1434.44 562.185 1408.73 562.079 1383.02C562.075 1382.18 562.072 1381.34 562.068 1380.48C561.993 1362.23 561.921 1343.98 561.852 1325.73C561.818 1316.78 561.784 1307.83 561.749 1298.88C561.745 1297.99 561.742 1297.1 561.738 1296.18C561.626 1267.35 561.465 1238.52 561.278 1209.69C561.087 1180.05 560.945 1150.4 560.865 1120.76C560.853 1116.57 560.841 1112.37 560.829 1108.18C560.827 1107.35 560.824 1106.53 560.822 1105.68C560.782 1092.43 560.69 1079.18 560.579 1065.93C560.467 1052.59 560.412 1039.25 560.411 1025.91C560.41 1018.69 560.384 1011.47 560.289 1004.25C559.595 949.584 559.595 949.584 575.278 932C577.748 929.131 579.427 926.079 581.219 922.75C581.77 921.786 582.321 920.823 582.889 919.83C583.42 918.896 583.952 917.962 584.5 917C589.405 908.441 594.401 899.945 599.5 891.5C605.292 881.904 610.938 872.232 616.52 862.513C620.943 854.816 625.428 847.159 629.955 839.523C634.409 832.008 638.834 824.475 643.25 816.938C643.973 815.704 644.696 814.47 645.419 813.236C648.333 808.262 651.247 803.287 654.159 798.312C664.032 781.444 673.951 764.605 683.931 747.8C685.419 745.295 686.906 742.79 688.393 740.284C692.381 733.565 696.371 726.847 700.361 720.128C703.557 714.747 706.752 709.365 709.947 703.984C711.921 700.659 713.895 697.334 715.87 694.01C719.455 687.974 723.038 681.938 726.614 675.897C734.851 661.983 743.126 648.096 751.543 634.29C757.265 624.901 762.9 615.462 768.5 606C774.781 595.389 781.123 584.819 787.542 574.291C793.265 564.902 798.899 555.463 804.5 546C810.781 535.389 817.123 524.819 823.542 514.291C829.265 504.902 834.899 495.462 840.5 486C848.542 472.417 856.696 458.905 864.912 445.427C868.425 439.662 871.932 433.894 875.438 428.125C875.787 427.55 876.136 426.976 876.496 426.384C882.029 417.275 887.523 408.143 893 399C900.913 385.791 908.889 372.622 916.891 359.468C920.076 354.231 923.256 348.991 926.437 343.752C928.208 340.835 929.979 337.917 931.75 335C932.458 333.833 933.167 332.667 933.875 331.5C989.125 240.5 989.125 240.5 990.188 238.75C990.896 237.583 991.604 236.416 992.313 235.25C994.083 232.335 995.853 229.419 997.623 226.504C1000.82 221.237 1004.02 215.969 1007.21 210.699C1015.09 197.7 1023 184.725 1030.98 171.789C1035.85 163.879 1040.69 155.945 1045.5 148C1053.6 134.628 1061.79 121.309 1070 108C1072.71 103.605 1075.42 99.209 1078.13 94.8125C1078.79 93.7336 1079.45 92.6546 1080.14 91.543C1084.47 84.5018 1088.77 77.4431 1093.06 70.375C1098.43 61.5375 1103.88 52.7617 1109.38 44.0063C1113.8 36.9591 1118.13 29.8659 1122.44 22.75C1132.87 5.5339 1132.87 5.5339 1137 0Z" stroke="white" stroke-width="36" mask="url(#path-2-inside-1_0_1)"/>
<path d="M1145.22 1382.78L1145.22 1382.78L1145.23 1386.33C1145.25 1392.2 1145.27 1398.08 1145.28 1403.95L1136.29 1403.98L1145.28 1403.95C1145.42 1450.63 1145.66 1497.31 1145.94 1544H1146.05H1146.29H1146.54H1146.78H1147.02H1147.27H1147.51H1147.76H1148H1148.24H1148.49H1148.73H1148.97H1149.22H1149.46H1149.71H1149.95H1150.19H1150.44H1150.68H1150.92H1151.17H1151.41H1151.65H1151.9H1152.14H1152.38H1152.63H1152.87H1153.11H1153.36H1153.6H1153.84H1154.09H1154.33H1154.57H1154.82H1155.06H1155.3H1155.55H1155.79H1156.03H1156.27H1156.52H1156.76H1157H1157.25H1157.49H1157.73H1157.98H1158.22H1158.46H1158.7H1158.95H1159.19H1159.43H1159.67H1159.92H1160.16H1160.4H1160.64H1160.89H1161.13H1161.37H1161.61H1161.86H1162.1H1162.34H1162.58H1162.83H1163.07H1163.31H1163.55H1163.8H1164.04H1164.28H1164.52H1164.77H1165.01H1165.25H1165.49H1165.73H1165.98H1166.22H1166.46H1166.7H1166.94H1167.19H1167.43H1167.67H1167.91H1168.15H1168.4H1168.64H1168.88H1169.12H1169.36H1169.6H1169.85H1170.09H1170.33H1170.57H1170.81H1171.05H1171.3H1171.54H1171.78H1172.02H1172.26H1172.5H1172.75H1172.99H1173.23H1173.47H1173.71H1173.95H1174.19H1174.44H1174.68H1174.92H1175.16H1175.4H1175.64H1175.88H1176.12H1176.37H1176.61H1176.85H1177.09H1177.33H1177.57H1177.81H1178.05H1178.29H1178.54H1178.78H1179.02H1179.26H1179.5H1179.74H1179.98H1180.22H1180.46H1180.7H1180.95H1181.19H1181.43H1181.67H1181.91H1182.15H1182.39H1182.63H1182.87H1183.11H1183.35H1183.59H1183.83H1184.07H1184.32H1184.56H1184.8H1185.04H1185.28H1185.52H1185.76H1186H1186.24H1186.48H1186.72H1186.96H1187.2H1187.44H1187.68H1187.92H1188.16H1188.4H1188.64H1188.88H1189.12H1189.36H1189.6H1189.84H1190.08H1190.32H1190.56H1190.81H1191.05H1191.29H1191.53H1191.77H1192.01H1192.25H1192.49H1192.73H1192.97H1193.21H1193.45H1193.69H1193.93H1194.17H1194.41H1194.65H1194.89H1195.13H1195.37H1195.6H1195.84H1196.08H1196.32H1196.56H1196.8H1197.04H1197.28H1197.52H1197.76H1198H1198.24H1198.48H1198.72H1198.96H1199.2H1199.44H1199.68H1199.92H1200.16H1200.4H1200.64H1200.88H1201.12H1201.36H1201.6H1201.84H1202.08H1202.31H1202.55H1202.79H1203.03H1203.27H1203.51H1203.75H1203.99H1204.23H1204.47H1204.71H1204.95H1205.19H1205.43H1205.67H1205.9H1206.14H1206.38H1206.62H1206.86H1207.1H1207.34H1207.58H1207.82H1208.06H1208.3H1208.54H1208.77H1209.01H1209.25H1209.49H1209.73H1209.97H1210.21H1210.45H1210.69H1210.93H1211.17H1211.4H1211.64H1211.88H1212.12H1212.36H1212.6H1212.84H1213.08H1213.32H1213.55H1213.79H1214.03H1214.27H1214.51H1214.75H1214.99H1215.23H1215.47H1215.7H1215.94H1216.18H1216.42H1216.66H1216.9H1217.14H1217.38H1217.61H1217.85H1218.09H1218.33H1218.57H1218.81H1219.05H1219.28H1219.52H1219.76H1220H1220.24H1220.48H1220.72H1220.96H1221.19H1221.43H1221.67H1221.91H1222.15H1222.39H1222.62H1222.86H1223.1H1223.34H1223.58H1223.82H1224.06H1224.29H1224.53H1224.77H1225.01H1225.25H1225.49H1225.72H1225.96H1226.2H1226.44H1226.68H1226.92H1227.16H1227.39H1227.63H1227.87H1228.11H1228.35H1228.59H1228.82H1229.06H1229.3H1229.54H1229.78H1230.01H1230.25H1230.49H1230.73H1230.97H1231.21H1231.44H1231.68H1231.92H1232.16H1232.4H1232.64H1232.87H1233.11H1233.35H1233.59H1233.83H1234.06H1234.3H1234.54H1234.78H1235.02H1235.26H1235.49H1235.73H1235.97H1236.21H1236.45H1236.68H1236.92H1237.16H1237.4H1237.64H1237.87H1238.11H1238.35H1238.59H1238.83H1239.06H1239.3H1239.54H1239.78H1240.02H1240.25H1240.49H1240.73H1240.97H1241.21H1241.44H1241.68H1241.92H1242.16H1242.4H1242.63H1242.87H1243.11H1243.35H1243.59H1243.82H1244.06H1244.3H1244.54H1244.78H1245.01H1245.25H1245.49H1245.73H1245.97H1246.2H1246.44H1246.68H1246.92H1247.16H1247.39H1247.63H1247.87H1248.11H1248.35H1248.58H1248.82H1249.06H1249.3H1249.53H1249.77H1250.01H1250.25H1250.49H1250.72H1250.96H1251V1543.57V1542.39V1541.21V1540.04V1538.86V1537.68V1536.5V1535.32V1534.15V1532.97V1531.79V1530.62V1529.44V1528.26V1527.09V1525.91V1524.73V1523.56V1522.38V1521.21V1520.03V1518.85V1517.68V1516.5V1515.33V1514.15V1512.98V1511.8V1510.63V1509.45V1508.28V1507.1V1505.93V1504.76V1503.58V1502.41V1501.23V1500.06V1498.89V1497.71V1496.54V1495.37V1494.2V1493.02V1491.85V1490.68V1489.5V1488.33V1487.16V1485.99V1484.82V1483.64V1482.47V1481.3V1480.13V1478.96V1477.79V1476.61V1475.44V1474.27V1473.1V1471.93V1470.76V1469.59V1468.42V1467.25V1466.08V1464.91V1463.74V1462.57V1461.4V1460.23V1459.06V1457.89V1456.72V1455.55V1454.38V1453.22V1452.05V1450.88V1449.71V1448.54V1447.37V1446.2V1445.04V1443.87V1442.7V1441.53V1440.37V1439.2V1438.03V1436.86V1435.7V1434.53V1433.36V1432.19V1431.03V1429.86V1428.69V1427.53V1426.36V1425.2V1424.03V1422.86V1421.7V1420.53V1419.37V1418.2V1417.04V1415.87V1414.7V1413.54V1412.37V1411.21V1410.04V1408.88V1407.72V1406.55V1405.39V1404.22V1403.06V1401.89V1400.73V1399.57V1398.4V1397.24V1396.07V1394.91V1393.75V1392.58V1391.42V1390.26V1389.09V1387.93V1386.77V1385.61V1384.44V1383.28V1382.12V1380.96V1379.79V1378.63V1377.47V1376.31V1375.15V1373.98V1372.82V1371.66V1370.5V1369.34V1368.18V1367.01V1365.85V1364.69V1363.53V1362.37V1361.21V1360.05V1358.89V1357.73V1356.57V1355.41V1354.25V1353.09V1351.93V1350.77V1349.61V1348.45V1347.29V1346.13V1344.97V1343.81V1342.65V1341.49V1340.33V1339.17V1338.01V1336.86V1335.7V1334.54V1333.38V1332.22V1331.06V1329.9V1328.75V1327.59V1326.43V1325.27V1324.11V1322.96V1321.8V1320.64V1319.48V1318.32V1317.17V1316.01V1314.85V1313.7V1312.54V1311.38V1310.22V1309.07V1307.91V1306.75V1305.6V1304.44V1303.28V1302.13V1300.97V1299.82V1298.66V1297.5V1296.35V1295.19V1294.04V1292.88V1291.72V1290.57V1289.41V1288.26V1287.1V1285.95V1284.79V1283.64V1282.48V1281.33V1280.17V1279.02V1277.86V1276.71V1275.55V1274.4V1273.24V1272.09V1270.93V1269.78V1268.63V1267.47V1266.32V1265.16V1264.01V1262.86V1261.7V1260.55V1259.39V1258.24V1257.09V1255.93V1254.78V1253.63V1252.47V1251.32V1250.17V1249.01V1247.86V1246.71V1245.56V1244.4V1243.25V1242.1V1240.94V1239.79V1238.64V1237.49V1236.33V1235.18V1234.03V1232.88V1231.73V1230.57V1229.42V1228.27V1227.12V1225.97V1224.81V1223.66V1222.51V1221.36V1220.21V1219.06V1217.91V1216.75V1215.6V1214.45V1213.3V1212.15V1211V1209.85V1208.7V1207.55V1206.4V1205.24V1204.09V1202.94V1201.79V1200.64V1199.49V1198.34V1197.19V1196.04V1194.89V1193.74V1192.59V1191.44V1190.29V1189.14V1187.99V1186.84V1185.69V1184.54V1183.39V1182.24V1181.09V1179.94V1178.79V1177.64V1176.49V1175.34V1174.2V1173.05V1171.9V1170.75V1169.6V1168.45V1167.3V1166.15V1165V1163.85V1162.71V1161.56V1160.41V1159.26V1158.11V1156.96V1155.81V1154.67V1153.52V1152.37V1151.22V1150.07V1148.92V1147.78V1146.63V1145.48V1144.33V1143.18V1142.03V1140.89V1139.74V1138.59V1137.44V1136.3V1135.15V1134V1132.85V1131.7V1130.56V1129.41V1128.26V1127.11V1125.97V1124.82V1123.67V1122.52V1121.38V1120.23V1119.08V1117.94V1116.79V1115.64V1114.49V1113.35V1112.2V1111.05V1109.91V1108.76V1107.61V1106.47V1105.32V1104.17V1103.03V1101.88V1100.73V1099.59V1098.44V1097.29V1096.15V1095V1093.85V1092.71V1091.56V1090.41V1089.27V1088.12V1086.97V1085.83V1084.68V1083.54V1082.39V1081.24V1080.1V1078.95V1077.8V1076.66V1075.51V1074.37V1073.22V1072.07V1070.93V1069.78V1068.64V1067.49V1066.35V1065.2V1064.05V1062.91V1061.76V1060.62V1059.47V1058.33V1057.18V1056.03V1054.89V1053.74V1052.6V1051.45V1050.31V1049.16V1048.02V1046.87V1045.72V1044.58V1043.43V1042.29V1041.14V1040V1038.85V1037.71V1036.56V1035.42V1034.27V1033.13V1031.98V1030.84V1029.69V1028.55V1027.4V1026.26V1025.11V1023.97V1022.82V1021.68V1020.53V1019.38V1018.24V1017.09V1015.95V1014.8V1013.66V1012.51V1011.37V1010.23V1009.08V1007.94V1006.79V1005.65V1004.5V1003.36V1002.21V1001.07V999.921V998.776V997.631V996.487V995.342V994.197V993.052V991.907V990.763V990.734C1249.12 993.82 1247.24 996.915 1245.36 1000.02L1145.22 1382.78ZM1145.22 1382.78C1145.16 1363.87 1145.05 1344.97 1144.92 1326.06L1145.22 1382.78ZM1144.68 1267.88L1144.68 1267.88C1144.71 1287.28 1144.79 1306.67 1144.92 1326.06L1144.68 1267.88ZM1144.68 1267.88C1144.66 1255.9 1144.6 1243.91 1144.49 1231.92L1144.68 1267.88ZM1144.41 1207.36L1144.41 1207.37C1144.39 1215.56 1144.41 1223.74 1144.49 1231.92L1144.41 1207.36ZM1144.41 1207.36C1144.42 1202.61 1144.41 1197.82 1144.33 1193.01C1144.01 1172 1144.71 1159.43 1156.41 1144.69L1156.44 1144.66M1144.41 1207.36L1156.44 1144.66M1156.44 1144.66L1156.47 1144.63M1156.44 1144.66L1156.47 1144.63M1156.47 1144.63C1159.09 1141.26 1161.15 1137.81 1162.98 1134.69C1164.14 1132.81 1165.31 1130.93 1166.47 1129.04L1166.47 1129.04M1156.47 1144.63L1166.47 1129.04M1166.47 1129.04C1172.09 1119.93 1177.66 1110.81 1183.2 1101.66C1189.37 1091.47 1195.59 1081.31 1201.85 1071.16L1201.85 1071.16M1166.47 1129.04L1201.85 1071.16M1201.85 1071.16C1206.16 1064.18 1210.44 1057.18 1214.69 1050.17C1220.25 1041.03 1225.85 1031.91 1231.48 1022.78L1231.48 1022.78M1201.85 1071.16L1231.48 1022.78M1231.48 1022.78C1236.15 1015.21 1240.77 1007.61 1245.36 1000.02L1231.48 1022.78Z" stroke="white" stroke-width="18"/>
</svg>
