<svg width="1296" height="1600" viewBox="0 0 1296 1600" fill="none" xmlns="http://www.w3.org/2000/svg">
    <path fill-rule="evenodd" clip-rule="evenodd"
        d="M1166.7 0.833069V252.766L717.972 996.062V1599.83H572.958V988.405L1166.7 0.833069ZM0 37.915H159.217L479.461 573.284L397.145 707.224L165.296 338.022V1599.83H0V37.915ZM28.3944 65.8509V1571.9H136.901V239.657L396.883 653.659L446.398 573.091L142.981 65.8509H28.3944ZM601.352 996.048V1571.9H689.577V988.391L1138.31 245.096V102.933L601.352 996.048ZM1296 943.827V1599.83H1138.31V1190.23L1296 943.827ZM1166.7 1198.29V1571.9H1267.61V1040.63L1166.7 1198.29Z"
        fill="white" />
</svg>